<svg width="40" height="40" viewBox="0 0 40 40" fill="none" xmlns="http://www.w3.org/2000/svg">
<path d="M32.509 21.2301H3.31738L7.3644 9.73261C7.73843 8.67171 8.74069 7.96189 9.86559 7.96121H22.5573L32.509 21.2301Z" fill="#FF8400"/>
<path d="M32.5092 21.8935H3.31756C3.10238 21.8935 2.9006 21.7891 2.77626 21.6134C2.65193 21.4378 2.62049 21.2128 2.69193 21.0098L6.73895 9.51231C7.20642 8.18594 8.45944 7.29849 9.86577 7.29773H22.5575C22.7663 7.29773 22.9629 7.39605 23.0882 7.56311L33.0399 20.832C33.1907 21.0331 33.215 21.302 33.1026 21.5268C32.9902 21.7516 32.7605 21.8935 32.5092 21.8935ZM4.25435 20.5666H31.1823L22.2258 8.62462H9.86577C9.02265 8.62502 8.27125 9.15661 7.99021 9.95151L4.25435 20.5666Z" fill="#3B97D3"/>
<path d="M20.5667 13.2687H15.2591C14.8927 13.2687 14.5957 12.9717 14.5957 12.6053V11.2784C14.5957 10.9119 14.8927 10.6149 15.2591 10.6149H20.5667" fill="#FF8400"/>
<path d="M2.65381 33.1722H9.28827V37.8163C9.28827 38.5491 8.6942 39.1432 7.96138 39.1432H3.9807C3.24788 39.1432 2.65381 38.5491 2.65381 37.8163V33.1722Z" fill="#FF8400"/>
<path d="M33.1725 33.1722V37.8163C33.1704 38.5482 32.5776 39.141 31.8456 39.1432H27.865C27.1331 39.141 26.5403 38.5482 26.5381 37.8163V33.1722H33.1725Z" fill="#FF8400"/>
<path d="M31.1822 33.1722V37.8163C31.18 38.5482 30.5872 39.141 29.8553 39.1432H27.865C27.1331 39.141 26.5403 38.5482 26.5381 37.8163V33.1722H31.1822Z" fill="#FF8400"/>
<path d="M35.1628 23.8839V33.8355C35.1628 34.202 34.8657 34.499 34.4993 34.499H1.32702C0.960609 34.499 0.663574 34.202 0.663574 33.8355V23.8839C0.663574 22.4182 1.85171 21.2301 3.31736 21.2301H25.9608L33.4842 21.4225C34.4988 21.817 35.166 22.7953 35.1628 23.8839Z" fill="#DE7300"/>
<path d="M33.1724 23.8839V33.8355C33.1724 34.202 32.8754 34.499 32.509 34.499H1.32702C0.960609 34.499 0.663574 34.202 0.663574 33.8355V23.8839C0.663574 22.4182 1.85171 21.2301 3.31736 21.2301H23.9704L31.4939 21.4225C32.5085 21.817 33.1756 22.7953 33.1724 23.8839Z" fill="#FF8400"/>
<path d="M4.64427 23.8839H7.29806C8.7637 23.8839 9.95184 25.0721 9.95184 26.5377C9.95184 27.2705 9.35777 27.8646 8.62495 27.8646H4.64427C3.91145 27.8646 3.31738 27.2705 3.31738 26.5377V25.2108C3.31738 24.478 3.91145 23.8839 4.64427 23.8839Z" fill="#FF8400"/>
<path d="M28.5283 23.8839H31.1821C31.9149 23.8839 32.509 24.478 32.509 25.2108V26.5377C32.509 27.2705 31.9149 27.8646 31.1821 27.8646H27.2014C26.4686 27.8646 25.8745 27.2705 25.8745 26.5377C25.8745 25.0721 27.0627 23.8839 28.5283 23.8839Z" fill="#FF8400"/>
<path d="M4.6444 31.8452H5.97129C6.33771 31.8452 6.63474 32.1423 6.63474 32.5087V34.499H3.98096V32.5087C3.98096 32.1423 4.27799 31.8452 4.6444 31.8452Z" fill="#FF8400"/>
<path d="M29.8549 31.8452H31.1817C31.5482 31.8452 31.8452 32.1423 31.8452 32.5087V34.499H29.1914V32.5087C29.1914 32.1423 29.4884 31.8452 29.8549 31.8452Z" fill="#FF8400"/>
<path d="M22.5572 27.8646H13.2689C12.9025 27.8646 12.6055 28.1616 12.6055 28.528V31.1818C12.6055 31.5482 12.9025 31.8453 13.2689 31.8453H22.5572C22.9236 31.8453 23.2206 31.5482 23.2206 31.1818V28.528C23.2206 28.1616 22.9236 27.8646 22.5572 27.8646Z" fill="#FF8400"/>
<path d="M39.1434 4.86297V14.2375C39.1401 16.2058 38.1831 18.0505 36.5758 19.1868L30.0475 23.8375C29.9316 23.9172 29.7786 23.9172 29.6627 23.8375L28.86 23.267L23.1344 19.1868C21.5272 18.0505 20.5702 16.2058 20.5669 14.2375V4.86297C20.5673 4.7309 20.6452 4.61139 20.7659 4.55778L28.86 1.06142L29.7224 0.689892C29.8078 0.656714 29.9025 0.656714 29.9878 0.689892L38.9443 4.55778C39.065 4.61139 39.143 4.7309 39.1434 4.86297Z" fill="#47AFB5"/>
<path d="M37.153 4.86279V14.2373C37.1497 16.2056 36.1928 18.0503 34.5855 19.1866L28.86 23.2668L23.1344 19.1866C21.5272 18.0503 20.5702 16.2056 20.5669 14.2373V4.86279C20.5673 4.73073 20.6452 4.61122 20.7659 4.55761L28.86 1.06125L36.954 4.55761C37.0747 4.61122 37.1526 4.73073 37.153 4.86279Z" fill="#66C1C6"/>
<path d="M24.6723 17.0265C23.7674 16.3864 23.2268 15.3491 23.2207 14.2407V6.39077L29.8552 3.52469L36.4896 6.39077V14.2407C36.4837 15.3493 35.9432 16.387 35.038 17.0271L29.8552 20.7159L24.6723 17.0265Z" fill="#955BA5"/>
<path d="M24.6723 17.0265C23.7674 16.3864 23.2268 15.3491 23.2207 14.2407V6.39077L29.8552 3.52469L36.4896 6.39077V14.2407C36.4837 15.3493 35.9432 16.387 35.038 17.0271L29.8552 20.7159L24.6723 17.0265Z" fill="#66C1C6"/>
<path d="M1.32702 34.499H2.65391V37.8162C2.65391 38.5491 3.24798 39.1431 3.9808 39.1431H5.97114C5.23832 39.1431 4.64425 38.5491 4.64425 37.8162V34.499H3.31736C2.95095 34.499 2.65391 34.202 2.65391 33.8356V23.8839C2.65391 22.6459 4.1679 21.6156 5.31433 21.3217C5.29952 21.2167 5.31021 21.1098 5.34551 21.0098L9.39253 9.51231C9.86 8.18594 11.113 7.29849 12.5194 7.29773H10.529C9.12244 7.29821 7.86908 8.18571 7.40153 9.51231L3.35451 21.0098C3.31921 21.1098 3.30852 21.2167 3.32333 21.3217C2.17756 21.6156 0.663574 22.6459 0.663574 23.8839V33.8356C0.663574 34.202 0.960609 34.499 1.32702 34.499Z" fill="#FF8400"/>
<path d="M29.855 24.5473C29.6089 24.5474 29.3689 24.4709 29.1683 24.3283L22.7488 19.7585C20.9702 18.4954 19.9105 16.4514 19.9033 14.2698V4.67574C19.9029 4.41158 20.0593 4.17236 20.3014 4.0667L29.5896 0.0541753C29.7573 -0.0181398 29.9474 -0.0181398 30.1151 0.0541753L39.4033 4.0667C39.6454 4.17236 39.8018 4.41158 39.8014 4.67574V14.2698C39.7942 16.4514 38.7346 18.4954 36.9559 19.7585L30.5364 24.3277C30.3373 24.4694 30.0993 24.5461 29.855 24.5473ZM21.2302 5.11162V14.2672C21.2368 16.0197 22.0889 17.6613 23.5184 18.6751L29.855 23.1885L36.1916 18.6771C37.6209 17.6634 38.473 16.0221 38.4798 14.2698V5.11162L29.855 1.38571L21.2302 5.11162Z" fill="black"/>
<path d="M29.855 21.4093C29.7171 21.4092 29.5826 21.3661 29.4702 21.2859L24.2874 17.5965C23.2078 16.8317 22.5635 15.593 22.5571 14.27V6.42008C22.5567 6.15592 22.7131 5.9167 22.9552 5.81104L29.5897 2.94495C29.7573 2.87264 29.9474 2.87264 30.1151 2.94495L36.7496 5.81104C36.9917 5.9167 37.148 6.15592 37.1476 6.42008V14.27C37.1414 15.593 36.4971 16.8318 35.4174 17.5965L30.2398 21.2859C30.1275 21.3661 29.993 21.4092 29.855 21.4093ZM25.0577 16.5157L29.855 19.9312L34.6524 16.5197C35.3841 16.0034 35.8212 15.1654 35.8261 14.27V6.85597L29.855 4.27715L23.884 6.85597V14.27C23.8898 15.1641 24.3269 16.0005 25.0577 16.5157Z" fill="black"/>
<path d="M28.5282 15.9226C28.3846 15.9229 28.2448 15.8763 28.1301 15.7899L25.4764 13.7996C25.1832 13.5798 25.1238 13.1639 25.3437 12.8708C25.5635 12.5776 25.9794 12.5182 26.2725 12.7381L28.4114 14.343L33.3209 8.21007C33.5499 7.9239 33.9676 7.87757 34.2537 8.10657C34.5399 8.33558 34.5862 8.75321 34.3572 9.03938L29.0497 15.6738C28.923 15.8321 28.7309 15.9237 28.5282 15.9226Z" fill="black"/>
<path d="M34.4992 35.1624H1.32689C0.59407 35.1624 0 34.5684 0 33.8355V23.8838C0.00219343 22.0527 1.48608 20.5688 3.31723 20.5666H25.9606C26.327 20.5666 26.6241 20.8636 26.6241 21.2301C26.6241 21.5965 26.327 21.8935 25.9606 21.8935H3.31723C2.218 21.8935 1.32689 22.7846 1.32689 23.8838V33.8355H34.4992V23.8838C34.5041 23.0682 34.0041 22.3346 33.2433 22.0408C32.9018 21.908 32.7326 21.5234 32.8654 21.182C32.9983 20.8405 33.3828 20.6713 33.7243 20.8041C34.9967 21.2943 35.8334 22.5203 35.8261 23.8838V33.8355C35.8261 34.5684 35.232 35.1624 34.4992 35.1624Z" fill="black"/>
<path d="M7.96125 39.8066H3.98057C2.88134 39.8066 1.99023 38.9155 1.99023 37.8163V34.4991C1.99023 34.1327 2.28727 33.8356 2.65368 33.8356H9.28814C9.65455 33.8356 9.95159 34.1327 9.95159 34.4991V37.8163C9.95159 38.9155 9.06048 39.8066 7.96125 39.8066ZM3.31713 35.1625V37.8163C3.31713 38.1827 3.61416 38.4798 3.98057 38.4798H7.96125C8.32766 38.4798 8.62469 38.1827 8.62469 37.8163V35.1625H3.31713Z" fill="black"/>
<path d="M31.8455 39.8066H27.8649C26.7656 39.8066 25.8745 38.9155 25.8745 37.8163V34.4991C25.8745 34.1327 26.1715 33.8356 26.538 33.8356H33.1724C33.5388 33.8356 33.8359 34.1327 33.8359 34.4991V37.8163C33.8359 38.9155 32.9448 39.8066 31.8455 39.8066ZM27.2014 35.1625V37.8163C27.2014 38.1827 27.4984 38.4798 27.8649 38.4798H31.8455C32.2119 38.4798 32.509 38.1827 32.509 37.8163V35.1625H27.2014Z" fill="black"/>
<path d="M2.69189 21.0099L5.55533 12.8741L6.73891 9.51241L7.99017 9.95293L6.80725 13.3146L3.94315 21.4505L2.69189 21.0099Z" fill="#FF8400"/>
<path d="M4.41884 18.1012C4.07332 17.9796 3.69468 18.1611 3.57295 18.5066L2.69189 21.0097L3.94315 21.4503L4.82421 18.9471C4.94575 18.6016 4.7643 18.2229 4.41884 18.1012Z" fill="black"/>
<path d="M7.98979 9.95148L6.73853 9.51096L5.33468 13.5003C5.21303 13.846 5.39467 14.2248 5.74038 14.3465C6.08608 14.4681 6.46495 14.2865 6.5866 13.9408L7.98979 9.95148Z" fill="black"/>
<path d="M4.45369 16.0034C4.39785 16.1699 4.40685 16.3514 4.47891 16.5116L4.54525 16.6197C4.5719 16.6557 4.60312 16.688 4.63813 16.7159C4.66733 16.7463 4.70086 16.7723 4.73765 16.7929C4.77661 16.8143 4.81695 16.8331 4.8584 16.8493C5.02488 16.9055 5.2065 16.8965 5.3666 16.8241C5.44425 16.7842 5.5136 16.73 5.57094 16.6642C5.74798 16.4637 5.7906 16.1778 5.67974 15.9344C5.63945 15.8568 5.58499 15.7875 5.51919 15.73C5.45512 15.6719 5.3803 15.6268 5.29892 15.5973C5.1331 15.5367 4.94982 15.5456 4.7906 15.6219C4.63138 15.6982 4.50967 15.8355 4.45303 16.0027L4.45369 16.0034Z" fill="black"/>
<path d="M25.9607 21.8935H3.31725C2.95084 21.8935 2.65381 21.5965 2.65381 21.23C2.65381 20.8636 2.95084 20.5666 3.31725 20.5666H25.9607C26.3271 20.5666 26.6241 20.8636 26.6241 21.23C26.6241 21.5965 26.3271 21.8935 25.9607 21.8935Z" fill="black"/>
<path d="M7.36438 10.396C7.14925 10.3961 6.94743 10.2919 6.82298 10.1164C6.69852 9.94091 6.66688 9.71598 6.73809 9.51297C7.20541 8.18612 8.45882 7.2983 9.86557 7.29773H20.567C20.9334 7.29773 21.2304 7.59476 21.2304 7.96118C21.2304 8.32759 20.9334 8.62462 20.567 8.62462H9.86557C9.02245 8.62502 8.27105 9.15661 7.99001 9.95151C7.89702 10.2175 7.64616 10.3957 7.36438 10.396Z" fill="black"/>
<path d="M7.06463 19.2397C6.84945 19.2396 6.64767 19.1352 6.52333 18.9596C6.399 18.784 6.36756 18.559 6.439 18.356L8.92958 11.2783C9.21202 10.4836 9.96372 9.95239 10.8071 9.95145H11.9423C12.3087 9.95145 12.6057 10.2485 12.6057 10.6149C12.6057 10.9813 12.3087 11.2783 11.9423 11.2783H10.8071C10.5257 11.2784 10.2749 11.456 10.1815 11.7215L7.69092 18.7965C7.59741 19.0622 7.34631 19.2399 7.06463 19.2397Z" fill="black"/>
<path d="M17.913 11.2784C17.5465 11.2784 17.2495 10.9814 17.2495 10.615V7.96118C17.2495 7.59476 17.5465 7.29773 17.913 7.29773C18.2794 7.29773 18.5764 7.59476 18.5764 7.96118V10.615C18.5764 10.9814 18.2794 11.2784 17.913 11.2784Z" fill="black"/>
<path d="M20.5666 13.9321H15.259C14.5262 13.9321 13.9321 13.3381 13.9321 12.6052V11.2783C13.9321 10.5455 14.5262 9.95145 15.259 9.95145H20.5666C20.933 9.95145 21.23 10.2485 21.23 10.6149C21.23 10.9813 20.933 11.2783 20.5666 11.2783H15.259V12.6052H20.5666C20.933 12.6052 21.23 12.9023 21.23 13.2687C21.23 13.6351 20.933 13.9321 20.5666 13.9321Z" fill="black"/>
<path d="M8.62482 28.528H4.64415C3.54491 28.528 2.65381 27.6369 2.65381 26.5377V25.2108C2.65381 24.1116 3.54491 23.2205 4.64415 23.2205H7.29793C9.12908 23.2227 10.613 24.7066 10.6152 26.5377C10.6152 27.6369 9.72406 28.528 8.62482 28.528ZM4.64415 24.5474C4.27774 24.5474 3.9807 24.8444 3.9807 25.2108V26.5377C3.9807 26.9041 4.27774 27.2012 4.64415 27.2012H8.62482C8.99123 27.2012 9.28827 26.9041 9.28827 26.5377C9.28827 25.4385 8.39716 24.5474 7.29793 24.5474H4.64415Z" fill="black"/>
<path d="M31.1819 28.528H27.2013C26.102 28.528 25.2109 27.6369 25.2109 26.5377C25.2131 24.7066 26.697 23.2227 28.5282 23.2205H31.1819C32.2812 23.2205 33.1723 24.1116 33.1723 25.2108V26.5377C33.1723 27.6369 32.2812 28.528 31.1819 28.528ZM28.5282 24.5474C27.4289 24.5474 26.5378 25.4385 26.5378 26.5377C26.5378 26.9041 26.8349 27.2012 27.2013 27.2012H31.1819C31.5484 27.2012 31.8454 26.9041 31.8454 26.5377V25.2108C31.8454 24.8444 31.5484 24.5474 31.1819 24.5474H28.5282Z" fill="black"/>
<path d="M6.63461 35.1624H3.98083C3.61442 35.1624 3.31738 34.8654 3.31738 34.499V32.5087C3.31738 31.7758 3.91145 31.1818 4.64428 31.1818H5.97117C6.70399 31.1818 7.29806 31.7758 7.29806 32.5087V34.499C7.29806 34.8654 7.00102 35.1624 6.63461 35.1624ZM4.64428 33.8355H5.97117V32.5087H4.64428V33.8355Z" fill="black"/>
<path d="M31.8456 35.1624H29.1918C28.8254 35.1624 28.5283 34.8654 28.5283 34.499V32.5087C28.5283 31.7758 29.1224 31.1818 29.8552 31.1818H31.1821C31.9149 31.1818 32.509 31.7758 32.509 32.5087V34.499C32.509 34.8654 32.212 35.1624 31.8456 35.1624ZM29.8552 33.8355H31.1821V32.5087H29.8552V33.8355Z" fill="black"/>
<path d="M22.557 32.5087H13.2688C12.536 32.5087 11.9419 31.9146 11.9419 31.1818V28.528C11.9419 27.7952 12.536 27.2011 13.2688 27.2011H22.557C23.2898 27.2011 23.8839 27.7952 23.8839 28.528V31.1818C23.8839 31.9146 23.2898 32.5087 22.557 32.5087ZM13.2688 28.528V31.1818H22.557V28.528H13.2688Z" fill="black"/>
</svg>
