<svg width="37" height="31" viewBox="0 0 37 31" fill="none" xmlns="http://www.w3.org/2000/svg">
<path d="M31.7493 7.52441H0.439941V30.223H31.7493V7.52441Z" fill="#4974A7"/>
<path opacity="0.26" d="M30.6288 30.223L14.9751 18.8747L30.6288 7.52441V26.5053L31.7494 30.223H30.6288Z" fill="black"/>
<path opacity="0.26" d="M1.5585 30.223L17.2122 18.8747L1.5585 7.52441V26.5053L0.439941 30.223H1.5585Z" fill="black"/>
<path d="M31.749 30.223L16.0933 18.8747L31.749 7.52441V30.223Z" fill="#5080D3"/>
<path d="M0.439941 30.223L16.0936 18.8747L0.439941 7.52441V30.223Z" fill="#5080D3"/>
<path opacity="0.26" d="M0.439941 7.52441V8.41519L16.0936 23.2045L31.7493 8.41519V7.52441H0.439941Z" fill="black"/>
<path d="M0.439941 7.52441L16.0936 22.3158L31.7493 7.52441H0.439941Z" fill="#5C94E6"/>
<path d="M34.9244 8.75937C35.6885 5.44986 33.625 2.14758 30.3155 1.38352C27.006 0.619455 23.7037 2.68295 22.9396 5.99246C22.1755 9.30197 24.239 12.6043 27.5486 13.3683C30.8581 14.1324 34.1603 12.0689 34.9244 8.75937Z" fill="#D50D15"/>
<path d="M28.1497 8.76441L25.8923 10.066L25.1113 8.67696L27.324 7.37536L25.1113 6.11648L25.8923 4.72743L28.1497 6.02903V3.42584H29.7116V6.02903L31.9244 4.72743L32.75 6.11648L30.4926 7.37536L32.75 8.67696L31.9244 10.066L29.7116 8.76441V11.3249H28.1497V8.76441Z" fill="white"/>
</svg>
