<svg width="40" height="40" viewBox="0 0 40 40" fill="none" xmlns="http://www.w3.org/2000/svg">
<path d="M17.2527 39.1438C17.2527 39.1438 25.2406 32.3036 27.6954 29.8157C29.0156 28.4756 30.7008 27.1354 31.968 25.2114C33.2479 23.2547 33.9006 20.9541 33.8389 18.6167C33.8389 12.4003 30.1501 9.2887 25.2406 9.2887C21.8581 9.3268 18.7783 11.2453 17.2527 14.2645C15.7272 11.2453 12.6474 9.3268 9.26486 9.2887C4.35536 9.2887 0.666597 12.4003 0.666597 18.6167C0.604934 20.9541 1.25761 23.2547 2.53751 25.2114C3.8047 27.1354 5.48985 28.4756 6.81011 29.8157C9.26486 32.3036 17.2527 39.1438 17.2527 39.1438Z" fill="#FF8400"/>
<path d="M33.8392 18.6167C33.9008 20.9541 33.2481 23.2546 31.9682 25.2114C30.7011 27.1354 29.0159 28.4755 27.6957 29.8157C25.2409 32.3036 17.253 39.1438 17.253 39.1438C17.253 39.1438 16.7156 38.686 15.873 37.9562C17.7771 36.3108 23.6619 31.2222 25.7053 29.1523C27.0256 27.8121 28.7107 26.4719 29.9779 24.5479C31.2578 22.5912 31.9105 20.2906 31.8488 17.9533C31.8488 13.6343 30.0708 10.8146 27.3374 9.49435C31.1655 10.2839 33.8392 13.3224 33.8392 18.6167Z" fill="#DE7300"/>
<path d="M39.1468 4.86352V14.238C39.1435 16.2063 38.1865 18.051 36.5793 19.1873L30.051 23.8381C29.9351 23.9177 29.7821 23.9177 29.6662 23.8381L28.8634 23.2675L23.1378 19.1873C21.5306 18.051 20.5736 16.2063 20.5703 14.238V4.86352C20.5707 4.73145 20.6487 4.61194 20.7693 4.55833L28.8634 1.06197L29.7259 0.690441C29.8112 0.657263 29.9059 0.657263 29.9912 0.690441L38.9478 4.55833C39.0685 4.61194 39.1464 4.73145 39.1468 4.86352Z" fill="#47AFB5"/>
<path d="M37.1565 4.86334V14.2378C37.1531 16.2062 36.1962 18.0509 34.5889 19.1871L28.8634 23.2673L23.1378 19.1871C21.5306 18.0509 20.5736 16.2062 20.5703 14.2378V4.86334C20.5707 4.73128 20.6487 4.61177 20.7693 4.55816L28.8634 1.0618L36.9574 4.55816C37.0781 4.61177 37.1561 4.73128 37.1565 4.86334Z" fill="#66C1C6"/>
<path d="M24.6757 17.027C23.7708 16.387 23.2302 15.3496 23.2241 14.2412V6.39132L29.8586 3.52524L36.493 6.39132V14.2412C36.4871 15.3499 35.9466 16.3875 35.0414 17.0277L29.8586 20.7164L24.6757 17.027Z" fill="#955BA5"/>
<path d="M24.6757 17.027C23.7708 16.387 23.2302 15.3496 23.2241 14.2412V6.39132L29.8586 3.52524L36.493 6.39132V14.2412C36.4871 15.3499 35.9466 16.3875 35.0414 17.0277L29.8586 20.7164L24.6757 17.027Z" fill="#66C1C6"/>
<path d="M6.81011 29.8157C8.62795 31.6581 13.4777 35.8849 15.8734 37.9555L16.8686 37.0931C14.311 34.8725 10.3927 31.4292 8.80044 29.8157C7.48019 28.4756 5.79503 27.1354 4.52785 25.2114C3.24795 23.2547 2.59527 20.9541 2.65693 18.6167C2.65693 12.8448 5.84148 9.75311 10.2255 9.34045C9.9064 9.30672 9.58576 9.28945 9.26486 9.2887C4.35536 9.2887 0.666597 12.4003 0.666597 18.6167C0.604934 20.9541 1.25761 23.2547 2.53751 25.2114C3.8047 27.1354 5.48985 28.4756 6.81011 29.8157Z" fill="#FF8400"/>
<path d="M17.2528 39.1437C17.2528 39.1437 16.7128 38.6793 15.8735 37.9555C16.7154 38.686 17.2528 39.1437 17.2528 39.1437Z" fill="white"/>
<path d="M19.1807 37.4811C19.4102 37.282 19.6544 37.0704 19.9105 36.8481C19.6544 37.0704 19.4102 37.286 19.1807 37.4811Z" fill="white"/>
<path d="M32.3609 24.5731C32.2357 24.7943 32.1048 25.007 31.9681 25.2114C31.5046 25.9044 30.9825 26.5565 30.4077 27.1606C30.9825 26.5565 31.5046 25.9044 31.9681 25.2114C32.1044 25.0057 32.2353 24.7929 32.3609 24.5731Z" fill="white"/>
<path d="M22.428 34.6428C21.9868 35.0322 21.5489 35.417 21.125 35.7872C21.5496 35.417 21.9875 35.0302 22.428 34.6428Z" fill="white"/>
<path d="M26.1918 31.258C25.9503 31.4815 25.6962 31.7151 25.4321 31.9559C25.6962 31.7131 25.9503 31.4815 26.1918 31.258Z" fill="white"/>
<path d="M25.4318 31.9559C25.1665 32.1967 24.8931 32.4455 24.6118 32.6983C24.8931 32.4429 25.1678 32.1967 25.4318 31.9559Z" fill="white"/>
<path d="M0.00336619 18.6167C-0.0196149 17.0942 0.237892 15.5804 0.763012 14.1511C1.3075 12.6796 2.25297 11.3898 3.49243 10.4278C5.16776 9.21188 7.19551 8.57868 9.26507 8.62523V9.95212C7.48638 9.90595 5.7415 10.4435 4.29719 11.4827C3.25347 12.2953 2.45825 13.384 2.00166 14.6254C1.53527 15.9035 1.30769 17.2564 1.33026 18.6167H0.00336619Z" fill="#FF8400"/>
<path d="M1.07488 15.3339C0.900563 15.2871 0.714579 15.3162 0.562899 15.414C0.411219 15.5118 0.307997 15.6693 0.278748 15.8474C0.0979396 16.7594 0.00573403 17.6868 0.00341797 18.6166H1.33031C1.33275 17.7764 1.41584 16.9384 1.57844 16.1141C1.63336 15.7638 1.41668 15.4281 1.07488 15.3339Z" fill="black"/>
<path d="M9.26499 9.9521V8.62521C7.19566 8.57882 5.16817 9.212 3.49301 10.4278C3.29842 10.5698 3.11378 10.725 2.94036 10.8922C2.79879 11.0102 2.71546 11.1839 2.71202 11.3681C2.70859 11.5524 2.78538 11.729 2.92245 11.8522C3.18173 12.0827 3.56995 12.0908 3.83867 11.8715C3.98229 11.7309 4.13595 11.6009 4.29844 11.4827C5.74239 10.4438 7.48675 9.90623 9.26499 9.9521Z" fill="black"/>
<path d="M1.20294 13.1758C1.10932 13.3387 1.09233 13.5346 1.1565 13.7112L1.21488 13.8286C1.23804 13.8672 1.26664 13.9023 1.2998 13.9327C1.32685 13.9655 1.3586 13.9942 1.39401 14.0177C1.43139 14.0424 1.47041 14.0646 1.51078 14.084C1.67134 14.1491 1.84983 14.155 2.01433 14.1006C2.09105 14.0705 2.16098 14.0254 2.22 13.9679C2.41867 13.8126 2.49833 13.5492 2.41903 13.3098C2.39145 13.2266 2.34995 13.1488 2.2963 13.0796C2.246 13.0096 2.18325 12.9496 2.1112 12.9024C1.96214 12.8083 1.78038 12.781 1.61029 12.8274C1.43632 12.8896 1.29131 13.0135 1.20294 13.1758Z" fill="black"/>
<path d="M17.253 39.8071C17.0948 39.8071 16.9419 39.7507 16.8217 39.6479C16.494 39.3673 8.78407 32.7607 6.33928 30.2814C6.00026 29.9377 5.63669 29.5934 5.26317 29.2398C4.03036 28.1512 2.92968 26.9216 1.98375 25.5762C0.635881 23.5096 -0.0545492 21.0833 0.00336698 18.6167C0.00336698 18.2503 0.300402 17.9532 0.666813 17.9532C1.03322 17.9532 1.33026 18.2503 1.33026 18.6167C1.27484 20.823 1.88869 22.9944 3.09104 24.8451C3.98063 26.1056 5.01517 27.2573 6.17341 28.2764C6.55888 28.6407 6.93306 28.9956 7.28203 29.3499C9.36326 31.4583 15.5592 36.8117 17.253 38.2693C18.9467 36.8097 25.1427 31.4583 27.2232 29.3499C27.5722 28.9956 27.9464 28.6407 28.3318 28.2764C29.49 27.2576 30.5245 26.1064 31.4142 24.8464C32.143 23.749 32.6532 22.5213 32.9169 21.2306C32.9913 20.8717 33.3425 20.6411 33.7014 20.7155C34.0603 20.7899 34.291 21.1411 34.2166 21.5C33.9195 22.9558 33.3442 24.3405 32.5222 25.5782C31.5767 26.9235 30.4764 28.1531 29.2441 29.2418C28.8706 29.5954 28.507 29.9397 28.168 30.2834C25.7218 32.7627 18.0119 39.3726 17.6855 39.6499C17.5647 39.7522 17.4113 39.808 17.253 39.8071Z" fill="black"/>
<path d="M17.2529 14.928C17.0011 14.9278 16.7711 14.7852 16.6591 14.5598C16.4243 14.0881 14.2256 9.95214 9.26501 9.95214C8.8986 9.95214 8.60156 9.6551 8.60156 9.28869C8.60156 8.92228 8.8986 8.62524 9.26501 8.62524C12.4871 8.64338 15.4854 10.2761 17.2489 12.9728C18.0301 11.8132 19.0394 10.8249 20.2152 10.0682C20.4155 9.94143 20.6682 9.93111 20.8782 10.0412C21.0881 10.1512 21.2234 10.3649 21.2331 10.6018C21.2428 10.8386 21.1254 11.0627 20.9251 11.1895C19.6234 12.0268 18.5625 13.1889 17.8467 14.5611C17.7343 14.786 17.5044 14.9281 17.2529 14.928Z" fill="black"/>
<path d="M25.8777 29.1919C25.5452 29.1919 25.2641 28.9457 25.2202 28.6161L24.1388 20.4889C24.1017 20.2512 24.1962 20.0121 24.3858 19.8639C24.5753 19.7158 24.8301 19.6819 25.0518 19.7752C25.2735 19.8686 25.4273 20.0746 25.4537 20.3137L26.285 26.5601L27.2994 24.8696C27.4193 24.6618 27.6419 24.5348 27.8818 24.5376C28.1217 24.5404 28.3414 24.6724 28.4564 24.8829C28.5714 25.0934 28.5638 25.3496 28.4366 25.5529L26.4463 28.8702C26.3263 29.0698 26.1105 29.1919 25.8777 29.1919Z" fill="black"/>
<path d="M17.9165 29.8555C17.8789 29.8553 17.8414 29.8522 17.8043 29.8462C17.5162 29.7967 17.2944 29.5644 17.2583 29.2743L16.3242 21.78L15.2375 25.4018C15.1531 25.6835 14.8933 25.876 14.5992 25.8748H12.2772L10.4859 28.2632C10.3256 28.4767 10.053 28.5733 9.79407 28.5084C9.53514 28.4436 9.34031 28.2298 9.29962 27.966L8.39004 22.0534L7.26682 25.421C7.17662 25.6918 6.92332 25.8746 6.63788 25.8748H0.666864C0.300453 25.8748 0.00341797 25.5778 0.00341797 25.2114C0.00341797 24.845 0.300453 24.5479 0.666864 24.5479H6.15953L7.99927 19.0307C8.09661 18.7408 8.37949 18.555 8.6842 18.5808C8.98891 18.6066 9.23651 18.8374 9.2837 19.1395L10.3711 26.2065L11.4147 24.8133C11.54 24.6463 11.7366 24.5479 11.9454 24.5479H14.1056L15.954 18.3865C16.0441 18.0862 16.3322 17.89 16.6447 17.9161C16.9571 17.9422 17.2087 18.1835 17.2477 18.4947L18.3032 26.9363L19.313 24.9155C19.4252 24.6903 19.6552 24.5479 19.9068 24.5479H22.0676L23.5106 19.7459C23.6162 19.3949 23.9863 19.1959 24.3373 19.3014C24.6883 19.4069 24.8873 19.777 24.7818 20.1281L23.1962 25.4024C23.1118 25.6829 22.8535 25.8749 22.5606 25.8748H20.3168L18.5136 29.4886C18.4006 29.7146 18.1691 29.8569 17.9165 29.8555Z" fill="black"/>
<path d="M29.8584 24.5478C29.6122 24.548 29.3721 24.4712 29.1718 24.3282L22.7523 19.7584C20.9734 18.4957 19.9137 16.4518 19.9067 14.2704V4.67561C19.9063 4.41146 20.0627 4.17223 20.3048 4.06657L29.593 0.0547132C29.7606 -0.0182377 29.9509 -0.0182377 30.1185 0.0547132L39.4067 4.06657C39.6488 4.17223 39.8052 4.41146 39.8048 4.67561V14.2704C39.7979 16.4518 38.7381 18.4957 36.9593 19.7584L30.5398 24.3282C30.3409 24.4702 30.1028 24.5469 29.8584 24.5478ZM21.2336 5.11216V14.2677C21.2401 16.0201 22.0923 17.6615 23.5219 18.675L29.8584 23.1884L36.195 18.677C37.6244 17.6636 38.4766 16.0225 38.4832 14.2704V5.11216L29.8584 1.38625L21.2336 5.11216Z" fill="black"/>
<path d="M29.8585 21.409C29.7205 21.4089 29.586 21.3658 29.4737 21.2856L24.2908 17.5962C23.2113 16.8316 22.567 15.5932 22.5605 14.2704V6.42048C22.5602 6.15632 22.7165 5.9171 22.9586 5.81144L29.5931 2.94535C29.7608 2.87303 29.9508 2.87303 30.1185 2.94535L36.753 5.81144C36.9951 5.9171 37.1514 6.15632 37.151 6.42048V14.2704C37.1447 15.5934 36.5004 16.8321 35.4208 17.5969L30.2379 21.2856C30.1271 21.3647 29.9946 21.4078 29.8585 21.409ZM25.0611 16.5161L29.8585 19.9316L34.6558 16.5161C35.3865 16.0008 35.8236 15.1645 35.8295 14.2704V6.85636L29.8585 4.27689L23.8874 6.85636V14.2704C23.8932 15.1645 24.3303 16.0009 25.0611 16.5161Z" fill="black"/>
<path d="M28.5316 15.9231C28.388 15.9231 28.2484 15.8766 28.1335 15.7905L25.4797 13.8001C25.2901 13.6579 25.1908 13.4253 25.2191 13.19C25.2475 12.9547 25.3992 12.7524 25.6172 12.6592C25.8352 12.5661 26.0863 12.5964 26.2759 12.7386L28.4148 14.3428L33.3243 8.21058C33.5539 7.92709 33.9693 7.88215 34.2542 8.10997C34.5391 8.33779 34.5867 8.7529 34.3606 9.03923L29.0531 15.6737C28.9265 15.8322 28.7344 15.9241 28.5316 15.9231Z" fill="black"/>
</svg>
