<svg width="40" height="40" viewBox="0 0 40 40" fill="none" xmlns="http://www.w3.org/2000/svg">
<path d="M5.97136 11.2783V3.38332C5.95482 2.99923 6.25089 2.67357 6.63481 2.65353H10.6155C10.9994 2.67357 11.2955 2.99923 11.2789 3.38332V6.72178" fill="#DE7300"/>
<path d="M29.1915 39.1431H5.97093C5.23902 39.1409 4.64623 38.5481 4.64404 37.8162V16.8049L19.9033 4.64392L35.1625 17.9128L29.1915 39.1431Z" fill="#FF8400"/>
<path d="M36.4898 14.9206V18.5497C36.4903 18.8026 36.3459 19.0336 36.1182 19.1439C35.8905 19.2542 35.6198 19.2243 35.4216 19.0672L34.4994 18.3506L32.5091 16.8048L18.7824 6.12997C18.661 6.03706 18.4924 6.03706 18.3711 6.12997L17.21 7.03225L4.64436 16.8048L1.73183 19.0672C1.57999 19.1891 1.38189 19.2373 1.19101 19.1989C1.00012 19.1604 0.83613 19.0393 0.743295 18.8681C0.689095 18.7709 0.661626 18.661 0.663682 18.5497V14.9206C0.662636 14.7149 0.758497 14.5208 0.922426 14.3965L4.64436 11.5039L17.21 1.72468L18.3711 0.822398C18.4924 0.729489 18.661 0.729489 18.7824 0.822398L32.5091 11.5039L36.231 14.3965C36.3949 14.5208 36.4908 14.7149 36.4898 14.9206Z" fill="#DE7300"/>
<path d="M34.4994 15.4979V18.3507L32.5091 16.8049L18.7824 6.13004C18.661 6.03713 18.4924 6.03713 18.3711 6.13004L17.21 7.03233L16.7921 6.70724C16.673 6.60763 16.4997 6.60763 16.3807 6.70724L2.65402 17.3821L0.743295 18.8682C0.689095 18.771 0.661626 18.6611 0.663682 18.5498V14.9207C0.662636 14.715 0.758497 14.5208 0.922426 14.3966L4.64436 11.504L17.21 1.72476L30.5187 12.0812L34.2407 14.9738C34.4046 15.098 34.5005 15.2922 34.4994 15.4979Z" fill="#FF8400"/>
<path d="M24.5475 24.5473V39.1431H12.6055V25.8742C12.6077 25.1423 13.2004 24.5495 13.9324 24.5473H24.5475Z" fill="#DE7300"/>
<path d="M22.5572 24.5473V39.1431H12.6055V25.8742C12.6077 25.1423 13.2004 24.5495 13.9324 24.5473H22.5572Z" fill="#FF8400"/>
<path d="M39.243 18.5231V28.7004C39.2371 30.8278 38.2012 32.8207 36.4632 34.0477L29.5169 38.997C29.3226 39.1364 29.0611 39.1364 28.8667 38.997L28.1967 38.5194L21.9205 34.0477C20.1825 32.8207 19.1465 30.8278 19.1406 28.7004V18.5231C19.1417 18.398 19.2175 18.2857 19.333 18.2378L28.1967 14.4097L29.0658 14.0316C29.1465 13.9984 29.2371 13.9984 29.3179 14.0316L39.0506 18.2378C39.1662 18.2857 39.2419 18.398 39.243 18.5231Z" fill="#47AFB5"/>
<path d="M37.1532 18.5232V23.6118V28.7005C37.1491 30.8247 36.1195 32.8163 34.3886 34.0478L28.1469 38.5195L21.9052 34.0478C20.1743 32.8163 19.1447 30.8247 19.1406 28.7005V18.5232C19.1415 18.3984 19.2167 18.2862 19.3317 18.2379L28.1469 14.4098L36.9621 18.2379C37.0771 18.2862 37.1523 18.3984 37.1532 18.5232Z" fill="#66C1C6"/>
<path d="M23.3042 32.0667C22.2173 31.2976 21.5685 30.0511 21.562 28.7196V21.5544C21.5619 20.5397 22.1651 19.6221 23.0966 19.2197L29.1916 16.5859L35.2874 19.2191C36.2185 19.6218 36.8213 20.5393 36.8213 21.5537V28.719C36.8147 30.0508 36.1654 31.2974 35.0777 32.066L29.1916 36.2577L23.3042 32.0667Z" fill="#66C1C6"/>
<path d="M4.64404 18.3507V37.8162C4.64623 38.5481 5.23902 39.1409 5.97093 39.143H7.96127C7.22936 39.1409 6.63657 38.5481 6.63438 37.8162V16.8048L4.64404 18.3507Z" fill="#FF8400"/>
<path d="M1.73183 19.0672L2.65402 18.3507V14.9207C2.65297 14.715 2.74883 14.5208 2.91276 14.3965L6.63469 11.5039L7.96159 10.4709V3.38332C7.94505 2.99923 8.24111 2.67357 8.62503 2.65353H6.63469C6.25077 2.67357 5.95471 2.99923 5.97125 3.38332V10.4709L4.64436 11.5039L0.922426 14.3965C0.758497 14.5208 0.662636 14.715 0.663682 14.9207V18.5497C0.661626 18.661 0.689095 18.7709 0.743295 18.8682C0.83613 19.0393 1.00012 19.1605 1.19101 19.1989C1.38189 19.2373 1.57999 19.1891 1.73183 19.0672Z" fill="#FF8400"/>
<path d="M5.30785 16.8048V25.4296V37.8162H3.98096V25.4296V16.8048H5.30785Z" fill="#FF8400"/>
<path d="M4.6444 20.1221C5.01081 20.1221 5.30785 19.825 5.30785 19.4586V16.8048H3.98096V19.4586C3.98096 19.825 4.27799 20.1221 4.6444 20.1221Z" fill="black"/>
<path d="M3.98096 37.8162H5.30785V24.7662C5.30785 24.3998 5.01081 24.1028 4.6444 24.1028C4.27799 24.1028 3.98096 24.3998 3.98096 24.7662V37.8162Z" fill="black"/>
<path d="M5.30764 22.1124C5.30507 21.9367 5.23636 21.7685 5.11524 21.6413L5.01572 21.5617C4.97875 21.5366 4.93859 21.5165 4.8963 21.502C4.85871 21.4828 4.81846 21.4694 4.77688 21.4622C4.733 21.4548 4.68867 21.4504 4.64419 21.4489C4.46856 21.4515 4.30036 21.5202 4.17315 21.6413C4.11317 21.7048 4.06588 21.7791 4.03382 21.8603C3.93373 22.1077 3.98828 22.3909 4.17315 22.5834C4.23658 22.6434 4.31089 22.6907 4.39209 22.7227C4.47185 22.7567 4.5575 22.7748 4.64419 22.7758C4.82069 22.7776 4.99049 22.7083 5.1153 22.5835C5.24011 22.4587 5.30943 22.2889 5.30764 22.1124Z" fill="black"/>
<path d="M29.1919 39.8065H5.97129C4.87206 39.8065 3.98096 38.9154 3.98096 37.8161C3.98096 37.4497 4.27799 37.1527 4.6444 37.1527C5.01081 37.1527 5.30785 37.4497 5.30785 37.8161C5.30785 38.1825 5.60488 38.4796 5.97129 38.4796H29.1919C29.5583 38.4796 29.8553 38.7766 29.8553 39.143C29.8553 39.5094 29.5583 39.8065 29.1919 39.8065Z" fill="black"/>
<path d="M32.5089 12.1674C32.3615 12.1675 32.2183 12.1182 32.1022 12.0274L18.5766 1.5038L5.05156 12.0274C4.86505 12.1792 4.61097 12.2182 4.3875 12.1293C4.16402 12.0405 4.00615 11.8376 3.97488 11.5991C3.94361 11.3607 4.04384 11.124 4.23685 10.9805L18.1692 0.139754C18.4088 -0.0466252 18.7443 -0.0466252 18.9839 0.139754L32.9163 10.9805C33.1398 11.1545 33.2282 11.4513 33.1362 11.7193C33.0442 11.9873 32.7922 12.1673 32.5089 12.1674Z" fill="#428DFF"/>
<path d="M1.32692 19.8766C0.594101 19.8766 3.17325e-05 19.2825 3.17325e-05 18.5497V14.9213C-0.00284689 14.5071 0.190269 14.116 0.520837 13.8664L18.1692 0.140394C18.4088 -0.0459843 18.7443 -0.0459843 18.9839 0.140394L36.6382 13.8737C36.9649 14.1226 37.1556 14.5106 37.153 14.9213V16.8387C37.153 17.2051 36.856 17.5021 36.4896 17.5021C36.1231 17.5021 35.8261 17.2051 35.8261 16.8387V14.9213L18.5765 1.50444L1.32692 14.9213V18.5504L18.1692 5.4473C18.4088 5.26092 18.7443 5.26092 18.9839 5.4473L29.3602 13.5155C29.5473 13.6611 29.6425 13.8955 29.6099 14.1304C29.5774 14.3653 29.422 14.565 29.2023 14.6542C28.9825 14.7435 28.7319 14.7087 28.5448 14.563L18.5765 6.81201L2.13898 19.592C1.90854 19.7764 1.6221 19.8768 1.32692 19.8766Z" fill="black"/>
<path d="M24.5479 39.8065H12.6058C12.2394 39.8065 11.9424 39.5095 11.9424 39.1431V25.8742C11.9424 24.7749 12.8335 23.8838 13.9327 23.8838H19.2403C19.6067 23.8838 19.9037 24.1809 19.9037 24.5473C19.9037 24.9137 19.6067 25.2107 19.2403 25.2107H13.9327C13.5663 25.2107 13.2693 25.5078 13.2693 25.8742V38.4796H23.8844V35.9187C23.8844 35.5523 24.1814 35.2553 24.5479 35.2553C24.9143 35.2553 25.2113 35.5523 25.2113 35.9187V39.1431C25.2113 39.5095 24.9143 39.8065 24.5479 39.8065Z" fill="black"/>
<path d="M5.97106 11.1323C5.60465 11.1323 5.30762 10.8353 5.30762 10.4689V3.31694C5.30762 2.58412 5.90169 1.99005 6.63451 1.99005H10.6152C11.348 1.99005 11.9421 2.58412 11.9421 3.31694V6.34226C11.9421 6.70867 11.645 7.0057 11.2786 7.0057C10.9122 7.0057 10.6152 6.70867 10.6152 6.34226V3.31694H6.63451V10.4689C6.63451 10.6448 6.56461 10.8136 6.44019 10.938C6.31577 11.0624 6.14702 11.1323 5.97106 11.1323Z" fill="black"/>
<path d="M29.1918 39.8065C28.9359 39.8064 28.6865 39.7256 28.4793 39.5756L21.6026 34.615C19.7052 33.2437 18.58 31.0461 18.5767 28.705V18.2889C18.5768 18.0253 18.7331 17.7867 18.9747 17.6812L28.9264 13.325C29.0956 13.2512 29.288 13.2512 29.4572 13.325L39.4089 17.6812C39.6505 17.7867 39.8068 18.0253 39.8069 18.2889V28.705C39.8036 31.0461 38.6784 33.2437 36.781 34.615L29.9037 39.5763C29.6964 39.7258 29.4474 39.8064 29.1918 39.8065ZM19.9036 18.7222V28.705C19.9066 30.6197 20.8267 32.417 22.3782 33.5389L29.1918 38.4537L36.0054 33.5389C37.5569 32.417 38.477 30.6197 38.48 28.705V18.7222L29.1918 14.6566L19.9036 18.7222Z" fill="black"/>
<path d="M29.1918 36.6632C29.0525 36.6632 28.9167 36.6193 28.8037 36.5378L23.1545 32.4629C21.948 31.5911 21.2325 30.1937 21.2305 28.7052V20.024C21.2306 19.7603 21.3869 19.5217 21.6285 19.4163L28.9264 16.2211C29.0957 16.1473 29.288 16.1473 29.4572 16.2211L36.7551 19.4163C36.9968 19.5217 37.153 19.7603 37.1532 20.024V28.7052C37.1509 30.1935 36.4355 31.5905 35.2292 32.4623L29.5799 36.5378C29.4669 36.6193 29.3312 36.6632 29.1918 36.6632ZM22.5574 20.4572V28.7052C22.5594 29.7674 23.07 30.7644 23.9307 31.3868L29.1918 35.1817L34.4529 31.3862C35.3142 30.7644 35.8249 29.7674 35.8263 28.7052V20.4572L29.1918 17.5533L22.5574 20.4572Z" fill="black"/>
<path d="M27.8651 30.5182C27.7011 30.5182 27.543 30.4574 27.4212 30.3477L24.7674 27.9593C24.5858 27.8022 24.5033 27.5592 24.5517 27.3239C24.6001 27.0887 24.7718 26.898 25.0007 26.8253C25.2296 26.7526 25.4799 26.8092 25.6551 26.9734L27.739 28.8483L32.6206 21.5252C32.824 21.2203 33.236 21.1381 33.5408 21.3414C33.8457 21.5448 33.928 21.9568 33.7246 22.2616L28.4171 30.223C28.3102 30.3831 28.139 30.4889 27.948 30.5129C27.9205 30.5166 27.8928 30.5184 27.8651 30.5182Z" fill="black"/>
</svg>
