<svg width="40" height="40" viewBox="0 0 40 40" fill="none" xmlns="http://www.w3.org/2000/svg">
<path d="M35.1518 8.75104C35.1518 14.1382 31.7616 16.2944 29.4993 18.4506C27.3762 20.4741 20.7749 25.8215 19.9722 26.4717C19.9514 26.486 19.9314 26.5015 19.9125 26.5181L19.8926 26.538L19.8727 26.5181C19.8537 26.5015 19.8337 26.486 19.8129 26.4717C19.0102 25.8215 12.4089 20.4741 10.2859 18.4506C8.02351 16.2944 4.6333 14.1382 4.6333 8.75104C4.6333 3.36386 8.02351 0.663635 12.5482 0.663635C12.7207 0.663635 12.8866 0.67027 13.0458 0.676904C15.9156 0.836929 18.5017 2.46075 19.8926 4.97603C21.2835 2.46075 23.8695 0.836929 26.7393 0.676904C26.8985 0.67027 27.0644 0.663635 27.2369 0.663635C31.7616 0.663635 35.1518 3.35723 35.1518 8.75104Z" fill="#FF8400"/>
<path d="M35.1514 8.75104C35.1514 14.1382 31.7612 16.2944 29.4988 18.4506C27.3758 20.4741 20.7745 25.8215 19.9718 26.4717C19.951 26.486 19.931 26.5015 19.912 26.5181L19.8921 26.538L19.8722 26.5181C19.8533 26.5015 19.8333 26.486 19.8125 26.4717C19.6732 26.3589 19.3481 26.0935 18.897 25.7286C20.9868 24.0302 25.7636 20.1159 27.5085 18.4506C29.7709 16.2944 33.1611 14.1382 33.1611 8.75104C33.1611 3.76856 30.2684 1.08824 26.2612 0.716711C26.4138 0.696808 26.573 0.683539 26.7389 0.676904C26.8981 0.67027 27.064 0.663635 27.2365 0.663635C31.7612 0.663635 35.1514 3.35723 35.1514 8.75104Z" fill="#DE7300"/>
<path d="M9.48696 27.6911L6.45634 24.6598C5.80629 24.0097 5.28615 23.2417 4.92378 22.3968L3.43899 18.9342C3.21019 18.4009 2.68582 18.055 2.10546 18.0545C1.61217 18.0552 1.15296 18.3063 0.88611 18.7212C0.619262 19.1361 0.581261 19.658 0.785205 20.1072L3.38525 25.8274C3.70411 26.5286 4.14636 27.1668 4.69091 27.7116L9.48696 32.509H15.9118V30.6109C15.9334 29.1902 15.4722 27.8043 14.6035 26.68C14.1179 26.0393 13.4566 25.5536 12.7 25.2821C11.2272 24.6604 9.86958 23.7951 8.68419 22.7225C7.73759 21.9323 6.34397 21.9968 5.47444 22.8711" fill="#66C1C6"/>
<path d="M30.2968 27.5497L33.3281 24.5184C33.9783 23.8682 34.4984 23.0999 34.8606 22.2547L36.3461 18.7929C36.5748 18.2597 37.0988 17.9139 37.6789 17.9131C38.1724 17.9136 38.6318 18.1646 38.8988 18.5795C39.1658 18.9945 39.2039 19.5166 38.9999 19.9658L36.3998 25.6861C36.081 26.3873 35.6387 27.0255 35.0942 27.5703L30.2961 32.3676H23.8733V30.4695C23.8516 29.0487 24.3129 27.6625 25.1816 26.5379C25.6675 25.8977 26.3287 25.4121 27.085 25.1401C28.5578 24.5189 29.9152 23.6538 31.1002 22.5812C32.047 21.7908 33.4409 21.8554 34.3106 22.7298" fill="#E8EDFC"/>
<path d="M30.2968 27.5497L33.3281 24.5184C33.9783 23.8682 34.4984 23.0999 34.8606 22.2547L36.3461 18.7929C36.5748 18.2597 37.0988 17.9139 37.6789 17.9131C38.1724 17.9136 38.6318 18.1646 38.8988 18.5795C39.1658 18.9945 39.2039 19.5166 38.9999 19.9658L36.3998 25.6861C36.081 26.3873 35.6387 27.0255 35.0942 27.5703L30.2961 32.3676H23.8733V30.4695C23.8516 29.0487 24.3129 27.6625 25.1816 26.5379C25.6675 25.8977 26.3287 25.4121 27.085 25.1401C28.5578 24.5189 29.9152 23.6538 31.1002 22.5812C32.047 21.7908 33.4409 21.8554 34.3106 22.7298" fill="#66C1C6"/>
<path d="M39.1321 19.3595C39.1328 19.568 39.0874 19.7741 38.9994 19.9632L36.3987 25.6887C36.0768 26.3885 35.6344 27.0262 35.0917 27.5729L30.295 32.3696H28.3047L33.1014 27.5729C33.644 27.0262 34.0864 26.3885 34.4084 25.6887L37.0091 19.9632C37.27 19.4003 37.1387 18.7334 36.684 18.3112C36.9514 18.0543 37.3083 17.9115 37.6792 17.9132C38.4795 17.9121 39.1296 18.5592 39.1321 19.3595Z" fill="#66C1C6"/>
<path d="M30.5072 32.5091H23.2093C22.8429 32.5091 22.5459 32.8061 22.5459 33.1725V38.4801C22.5459 38.8465 22.8429 39.1436 23.2093 39.1436H30.5072C30.8737 39.1436 31.1707 38.8465 31.1707 38.4801V33.1725C31.1707 32.8061 30.8737 32.5091 30.5072 32.5091Z" fill="#66C1C6"/>
<path d="M28.5169 32.5091H23.2093C22.8429 32.5091 22.5459 32.8061 22.5459 33.1725V38.4801C22.5459 38.8465 22.8429 39.1436 23.2093 39.1436H28.5169C28.8833 39.1436 29.1804 38.8465 29.1804 38.4801V33.1725C29.1804 32.8061 28.8833 32.5091 28.5169 32.5091Z" fill="#66C1C6"/>
<path d="M16.5746 32.5091H9.27673C8.91032 32.5091 8.61328 32.8061 8.61328 33.1725V38.4801C8.61328 38.8465 8.91032 39.1436 9.27673 39.1436H16.5746C16.941 39.1436 17.2381 38.8465 17.2381 38.4801V33.1725C17.2381 32.8061 16.941 32.5091 16.5746 32.5091Z" fill="#66C1C6"/>
<path d="M9.48668 32.509H9.27703C8.91062 32.509 8.61359 32.8061 8.61359 33.1725V38.4801C8.61359 38.8465 8.91062 39.1435 9.27703 39.1435H11.2674C10.901 39.1435 10.6039 38.8465 10.6039 38.4801V33.1725C10.6039 32.8061 10.901 32.509 11.2674 32.509H11.4777L6.68031 27.7117C6.13575 27.1669 5.69351 26.5287 5.37465 25.8275L2.77526 20.1072C2.51924 19.5468 2.64624 18.8856 3.09173 18.4599C2.59199 17.9762 1.8181 17.9185 1.25213 18.3227C0.686165 18.7269 0.48962 19.4776 0.784927 20.1072L3.38497 25.8275C3.70383 26.5287 4.14608 27.1669 4.69063 27.7117L9.48668 32.509Z" fill="#66C1C6"/>
<path d="M19.8727 26.5181L19.8926 26.538L19.9125 26.5181C19.9314 26.5015 19.9514 26.486 19.9722 26.4717C20.1135 26.3569 20.4426 26.0909 20.8877 25.7286C18.8058 24.0342 14.025 20.1179 12.2762 18.4506C10.0138 16.2944 6.62364 14.1382 6.62364 8.75104C6.62364 3.78183 9.50233 1.11212 13.491 0.720028C13.3437 0.704769 13.1991 0.684866 13.0458 0.676904C12.8925 0.668943 12.7207 0.663635 12.5482 0.663635C8.02351 0.663635 4.6333 3.35723 4.6333 8.75104C4.6333 14.1449 8.02351 16.2944 10.2859 18.4506C12.0347 20.1179 16.8155 24.0342 18.8974 25.7286L18.9909 25.8043L19.8129 26.4717C19.8337 26.486 19.8537 26.5015 19.8727 26.5181Z" fill="#FF8400"/>
<path d="M4.22122 28.1807C3.66177 27.6198 3.19986 26.9696 2.85453 26.2567L1.95755 24.2909L0.180176 20.3819L1.38831 19.8325L3.16502 23.7415L4.04873 25.6808C4.32949 26.2595 4.70485 26.7874 5.15934 27.2425L4.22122 28.1807Z" fill="#66C1C6"/>
<path d="M3.06877 25.1335C2.74329 25.2679 2.58695 25.6395 2.71847 25.9661C3.07615 26.792 3.5859 27.5432 4.22117 28.1807L5.15929 27.2426C4.63624 26.718 4.21789 26.0986 3.9266 25.4175C3.76712 25.1033 3.38418 24.9766 3.06877 25.1335Z" fill="#070707"/>
<path d="M1.38831 19.8325L0.180176 20.3819L0.688375 21.4958C0.84759 21.8098 1.23033 21.9366 1.54555 21.7797C1.8713 21.6456 2.02776 21.2738 1.89585 20.9471L1.38831 19.8325Z" fill="#070707"/>
<path d="M1.7036 23.7323C1.77537 23.881 1.90329 23.9951 2.05921 24.0494L2.17995 24.0753C2.224 24.081 2.2686 24.081 2.31264 24.0753C2.35434 24.0762 2.39595 24.0709 2.43604 24.0594C2.47899 24.0476 2.52111 24.033 2.5621 24.0156C2.7192 23.9428 2.8451 23.8162 2.91704 23.6587C2.94744 23.5818 2.96232 23.4998 2.96083 23.4172C2.95623 23.1665 2.79447 22.9457 2.55679 22.8658C2.4751 22.8416 2.38964 22.8326 2.30468 22.8393C2.21836 22.8438 2.1336 22.864 2.05456 22.899C1.89741 22.972 1.77136 23.0985 1.69896 23.2559C1.63719 23.409 1.63886 23.5804 1.7036 23.7323Z" fill="#070707"/>
<path d="M15.9115 33.1724H9.48734C9.3114 33.1724 9.14267 33.1024 9.01828 32.978L4.22091 28.1806C3.96948 27.9203 3.97307 27.5065 4.22899 27.2506C4.4849 26.9947 4.8987 26.9911 5.15902 27.2425L9.76201 31.8455H15.248V30.6108C15.2681 29.3411 14.8582 28.1019 14.085 27.0946C13.6792 26.5538 13.1248 26.1428 12.4894 25.9116C10.9303 25.2772 9.49685 24.3695 8.25665 23.2313C7.572 22.6677 6.57158 22.7151 5.94321 23.3408C5.69175 23.587 5.29182 23.594 5.03187 23.3568C4.77192 23.1196 4.74242 22.7207 4.96463 22.4478C6.07698 21.3042 7.87981 21.203 9.11316 22.2149C10.229 23.2406 11.5141 24.0653 12.9114 24.6524C13.79 24.9628 14.5587 25.5235 15.1227 26.2653C16.0839 27.508 16.5958 29.0398 16.5749 30.6108V32.5089C16.5749 32.8754 16.2779 33.1724 15.9115 33.1724Z" fill="#070707"/>
<path d="M9.48751 28.3545C9.31156 28.3545 9.14284 28.2845 9.01845 28.1601L5.98783 25.1288C5.27678 24.42 4.70872 23.5809 4.31462 22.6575L2.83049 19.1963C2.70662 18.9061 2.42152 18.7179 2.10601 18.7179C1.83785 18.718 1.58812 18.8543 1.44298 19.0798C1.29785 19.3053 1.2772 19.5891 1.38816 19.8332C1.52654 20.164 1.37703 20.5449 1.05057 20.6932C0.724106 20.8416 0.338851 20.7037 0.180686 20.3819C-0.291068 19.3132 0.192801 18.0645 1.26144 17.5927C2.33008 17.121 3.57881 17.6048 4.05057 18.6735L5.53337 22.1347C5.86209 22.903 6.33504 23.6011 6.9266 24.1914L9.95723 27.2227C10.1469 27.4124 10.2036 27.6977 10.101 27.9456C9.99832 28.1935 9.75646 28.3551 9.48817 28.3552L9.48751 28.3545Z" fill="black"/>
<path d="M16.575 39.807H9.27709C8.54426 39.807 7.9502 39.2129 7.9502 38.4801V33.1725C7.9502 32.4397 8.54426 31.8456 9.27709 31.8456H16.575C17.3078 31.8456 17.9019 32.4397 17.9019 33.1725V38.4801C17.9019 39.2129 17.3078 39.807 16.575 39.807ZM9.27709 33.1725V38.4801H16.575V33.1725H9.27709Z" fill="black"/>
<path d="M14.5847 36.4897H13.9213C13.5548 36.4897 13.2578 36.1927 13.2578 35.8263C13.2578 35.4598 13.5548 35.1628 13.9213 35.1628H14.5847C14.9511 35.1628 15.2481 35.4598 15.2481 35.8263C15.2481 36.1927 14.9511 36.4897 14.5847 36.4897Z" fill="black"/>
<path d="M30.2972 33.1725H23.873C23.5066 33.1725 23.2096 32.8755 23.2096 32.5091V30.6109C23.1892 29.0397 23.7019 27.5079 24.6638 26.2654C25.2278 25.5236 25.9965 24.963 26.8751 24.6525C28.2724 24.0655 29.5575 23.2408 30.6733 22.215C31.7084 21.3593 33.1806 21.2786 34.303 22.016L35.7348 18.6756C36.032 17.972 36.6854 17.4833 37.4443 17.3971C38.2031 17.3108 38.9495 17.6404 39.3971 18.2593C39.8446 18.8782 39.9237 19.6903 39.604 20.3839L37.0039 26.1035C36.6532 26.8778 36.1652 27.5822 35.5636 28.1827L30.7662 32.9781C30.6418 33.1026 30.4731 33.1725 30.2972 33.1725ZM24.5365 31.8456H30.0225L34.6255 27.2426C35.1144 26.7545 35.511 26.182 35.7965 25.5528L38.3965 19.8333C38.5075 19.5892 38.4868 19.3054 38.3417 19.0799C38.1965 18.8544 37.9468 18.7181 37.6787 18.718C37.3633 18.7178 37.0782 18.9058 36.9542 19.1957L35.47 22.6576C35.0759 23.581 34.5079 24.42 33.7968 25.1289L30.7662 28.1602C30.5059 28.4116 30.0921 28.408 29.8362 28.1521C29.5803 27.8962 29.5767 27.4824 29.8281 27.2221L32.8587 24.1908C33.1654 23.885 33.4408 23.5494 33.6807 23.189C33.0415 22.6983 32.1476 22.7157 31.5279 23.2308C30.2875 24.3691 28.8539 25.2768 27.2944 25.9111C26.6603 26.143 26.1072 26.5539 25.7021 27.094C24.9279 28.1012 24.517 29.3407 24.5365 30.6109V31.8456Z" fill="black"/>
<path d="M30.5076 39.807H23.2097C22.4769 39.807 21.8828 39.2129 21.8828 38.4801V33.1725C21.8828 32.4397 22.4769 31.8456 23.2097 31.8456H30.5076C31.2404 31.8456 31.8345 32.4397 31.8345 33.1725V38.4801C31.8345 39.2129 31.2404 39.807 30.5076 39.807ZM23.2097 33.1725V38.4801H30.5076V33.1725H23.2097Z" fill="black"/>
<path d="M25.8635 36.4897H25.2001C24.8337 36.4897 24.5366 36.1927 24.5366 35.8263C24.5366 35.4598 24.8337 35.1628 25.2001 35.1628H25.8635C26.2299 35.1628 26.527 35.4598 26.527 35.8263C26.527 36.1927 26.2299 36.4897 25.8635 36.4897Z" fill="black"/>
<path d="M19.8924 27.2014C19.7408 27.2014 19.5938 27.1494 19.4758 27.0542C19.1746 26.8113 12.0817 21.0831 9.82663 18.9323C9.51812 18.6383 9.18839 18.3438 8.84871 18.0412C6.67526 16.1027 3.96973 13.689 3.96973 8.74969C3.96973 3.35256 7.25577 0.00016434 12.5454 0.00016434C15.4576 -0.0174386 18.1971 1.38 19.8924 3.74797C21.5877 1.38 24.3272 -0.0174386 27.2394 0.00016434C32.5291 0.00016434 35.8151 3.35256 35.8151 8.74969C35.8151 13.689 33.1096 16.1027 30.9361 18.0412C30.5965 18.3438 30.2667 18.6383 29.9582 18.9323C27.7025 21.0825 20.6103 26.8113 20.3091 27.0542C20.1911 27.1494 20.0441 27.2014 19.8924 27.2014ZM12.5454 1.32706C8.00613 1.32706 5.29662 4.10159 5.29662 8.74969C5.29662 13.0946 7.65318 15.1964 9.73242 17.0507C10.0827 17.3639 10.4237 17.6677 10.7428 17.9722C12.6496 19.7908 18.3068 24.3984 19.8924 25.6841C21.4781 24.3984 27.1359 19.7908 29.042 17.9722C29.3611 17.6677 29.7055 17.3639 30.0524 17.0507C32.1317 15.1964 34.4882 13.0946 34.4882 8.74969C34.4882 4.10159 31.7787 1.32706 27.2394 1.32706C24.4343 1.31817 21.8457 2.83352 20.4802 5.28385C20.3545 5.48775 20.132 5.61191 19.8924 5.61191C19.6529 5.61191 19.4304 5.48775 19.3046 5.28385C17.9391 2.83352 15.3505 1.31817 12.5454 1.32706Z" fill="black"/>
<path d="M25.8633 17.9132H25.8368C25.534 17.9011 25.2778 17.6854 25.2144 17.3891L23.8212 10.8966L23.1876 13.431C23.1136 13.7252 22.8494 13.9317 22.5461 13.9325H19.0437L18.5315 15.4691C18.4322 15.7394 18.176 15.9201 17.888 15.9229C17.5972 15.9166 17.3443 15.7216 17.2644 15.4419L16.5598 12.9759L15.2203 17.4402C15.1302 17.7287 14.8589 17.9218 14.5568 17.9126C14.2541 17.9005 13.9979 17.6848 13.9345 17.3884L12.5413 10.896L11.9077 13.4303C11.8341 13.7243 11.5706 13.931 11.2675 13.9325H1.31579C0.949379 13.9325 0.652344 13.6355 0.652344 13.2691C0.652344 12.9027 0.949379 12.6057 1.31579 12.6057H10.7493L11.9508 7.80032C12.0206 7.49764 12.2952 7.28698 12.6056 7.29809C12.9144 7.30332 13.1787 7.52088 13.2432 7.82287L14.6922 14.5834L15.9395 10.4249C16.0125 10.1349 16.2803 9.9368 16.579 9.95187C16.8736 9.95377 17.1316 10.1497 17.2126 10.4329L17.9517 13.0203C18.0529 12.7701 18.2955 12.6062 18.5654 12.6057H22.0279L23.2294 7.80032C23.3044 7.50089 23.5759 7.29272 23.8846 7.29811C24.1932 7.30349 24.4573 7.52101 24.5218 7.82287L25.9708 14.5834L27.218 10.4249C27.3022 10.1441 27.5605 9.95185 27.8536 9.95187H27.8576C28.1522 9.95377 28.4102 10.1497 28.4912 10.4329L29.2303 13.0203C29.3315 12.7701 29.5741 12.6062 29.844 12.6057H38.4688C38.8352 12.6057 39.1322 12.9027 39.1322 13.2691C39.1322 13.6355 38.8352 13.9325 38.4688 13.9325H30.3223L29.8101 15.4691C29.7087 15.7378 29.4537 15.9175 29.1666 15.9229C28.8757 15.9166 28.6229 15.7216 28.5429 15.4419L27.8384 12.9759L26.4989 17.4402C26.4148 17.7209 26.1564 17.9132 25.8633 17.9132Z" fill="black"/>
</svg>
