<svg width="40" height="40" viewBox="0 0 40 40" fill="none" xmlns="http://www.w3.org/2000/svg">
<path d="M30.5186 27.8648H34.4993C35.731 27.8648 36.9123 28.3541 37.7832 29.225C38.6541 30.096 39.1434 31.2772 39.1434 32.5089V38.4799C39.1434 38.8464 38.8464 39.1434 38.48 39.1434H25.8745V32.5089C25.8745 29.9441 27.9538 27.8648 30.5186 27.8648Z" fill="#DE7300"/>
<path d="M30.5186 27.8648H32.509C35.0739 27.8648 37.1531 29.9441 37.1531 32.5089V38.4799C37.1531 38.8464 36.8561 39.1434 36.4896 39.1434H25.8745V32.5089C25.8745 29.9441 27.9538 27.8648 30.5186 27.8648Z" fill="#FF8400"/>
<path d="M21.2304 11.9421V19.9034C21.2304 20.6362 20.6364 21.2303 19.9036 21.2303C19.1707 21.2303 18.5767 20.6362 18.5767 19.9034V11.9421" fill="#66C1C6"/>
<path d="M13.9325 32.5089V39.1434H1.32702C0.960609 39.1434 0.663574 38.8464 0.663574 38.4799V32.5089C0.663574 29.9441 2.74282 27.8648 5.30769 27.8648H9.28837C10.5201 27.8648 11.7013 28.3541 12.5723 29.225C13.4432 30.096 13.9325 31.2772 13.9325 32.5089Z" fill="#DE7300"/>
<path d="M11.9418 32.5089V39.1434H1.22716C0.889829 39.1128 0.639072 38.8178 0.66323 38.4799V32.5089C0.66323 29.9414 2.42866 27.8648 4.61073 27.8648H7.99431C10.1764 27.8648 11.9418 29.9414 11.9418 32.5089Z" fill="#FF8400"/>
<path d="M18.5762 31.8453H21.23C23.7949 31.8453 25.8742 33.9245 25.8742 36.4894V39.1432H13.9321V36.4894C13.9321 33.9245 16.0114 31.8453 18.5762 31.8453Z" fill="#DE7300"/>
<path d="M18.5763 31.8453H19.2397C21.8046 31.8453 23.8838 33.9245 23.8838 36.4894V39.1432H13.9321V36.4894C13.9321 33.9245 16.0114 31.8453 18.5763 31.8453Z" fill="#FF8400"/>
<path d="M17.9131 31.8453L19.3348 34.2145C19.4548 34.414 19.6706 34.536 19.9034 34.536C20.1362 34.536 20.352 34.414 20.472 34.2145L21.8938 31.8453" fill="#FF8400"/>
<path d="M29.8554 27.8648C29.8554 27.8648 29.192 32.5089 32.5092 32.5089C35.8264 32.5089 35.163 27.8648 35.163 27.8648" fill="#FF8400"/>
<path d="M39.1434 16.5862C38.4556 15.9376 37.6611 15.4124 36.7948 15.0337C35.8745 14.6063 34.8376 14.4989 33.8491 14.7285C33.0854 14.9377 32.3929 15.3505 31.8455 15.9227C31.5391 15.6331 31.2059 15.3732 30.8504 15.1465C29.6491 14.3217 28.1717 14.0023 26.737 14.2575C25.6441 14.5228 24.6526 15.1016 23.8842 15.9227C23.7229 15.5309 23.465 15.1862 23.1345 14.9209C22.2127 14.2111 21.0647 13.8598 19.9035 13.9324C19.5707 13.9324 19.2382 13.9546 18.9083 13.9988C16.447 14.3437 15.9228 15.9227 15.9228 15.9227C15.5479 15.5436 15.1318 15.2076 14.6822 14.9209C13.6165 14.2318 12.321 13.9932 11.0797 14.2575C9.91313 14.5319 8.83835 15.1059 7.96148 15.9227C7.666 15.6206 7.33128 15.3595 6.96631 15.1465C6.06198 14.6142 4.98295 14.4638 3.96754 14.7285C2.72914 15.064 1.5937 15.7024 0.663574 16.5862C0.747509 16.0612 0.867208 15.5425 1.02183 15.0337C2.07008 11.3649 5.95124 2.44153 18.9083 2.01029C19.2334 1.99702 19.5651 1.99039 19.9035 1.99039C37.1531 1.99039 39.1434 16.5862 39.1434 16.5862Z" fill="#47AFB5"/>
<path d="M36.795 15.0337C35.8746 14.6063 34.8377 14.4989 33.8493 14.7285C32.8339 14.4638 31.7548 14.6142 30.8505 15.1465C29.6493 14.3216 28.1718 14.0023 26.7371 14.2575C25.4958 13.9932 24.2004 14.2318 23.1346 14.9209C22.2129 14.2111 21.0648 13.8598 19.9036 13.9324C19.5708 13.9324 19.2384 13.9546 18.9085 13.9987C18.5786 13.9546 18.2461 13.9324 17.9133 13.9324C16.7521 13.8598 15.6041 14.2111 14.6823 14.9209C13.6166 14.2318 12.3211 13.9932 11.0798 14.2575C9.64515 14.0023 8.16768 14.3216 6.96645 15.1465C6.06212 14.6142 4.98309 14.4638 3.96767 14.7285C2.97922 14.4989 1.94235 14.6063 1.02197 15.0337C2.07022 11.3649 5.95137 2.44152 18.9085 2.01028C31.8656 2.44152 35.7467 11.3649 36.795 15.0337Z" fill="#66C1C6"/>
<path d="M19.9035 1.99039C8.62493 4.64417 7.96148 15.9227 7.96148 15.9227C4.64425 12.6055 0.663574 16.5862 0.663574 16.5862C0.663574 16.5862 2.65391 1.99039 19.9035 1.99039Z" fill="#66C1C6"/>
<path d="M23.8837 15.9228C23.8837 15.9228 23.2203 13.9324 19.903 13.9324C16.5858 13.9324 15.9224 15.9228 15.9224 15.9228C15.9224 15.9228 15.9224 5.97106 19.903 1.99039C23.8837 5.97106 23.8837 15.9228 23.8837 15.9228Z" fill="#66C1C6"/>
<path d="M31.8453 15.9228C31.8453 15.9228 27.8647 11.9421 23.884 15.9228C23.884 15.9228 23.884 5.97106 19.9033 1.99039C31.1819 4.64417 31.8453 15.9228 31.8453 15.9228Z" fill="#66C1C6"/>
<path d="M19.9035 1.99039C15.9228 5.97106 15.9228 15.9228 15.9228 15.9228C11.9421 11.9421 7.96143 15.9228 7.96143 15.9228C7.96143 15.9228 8.62487 4.64417 19.9035 1.99039Z" fill="#66C1C6"/>
<path d="M19.903 32.5088C22.1015 32.5088 23.8837 30.7266 23.8837 28.5282C23.8837 26.3297 22.1015 24.5475 19.903 24.5475C17.7046 24.5475 15.9224 26.3297 15.9224 28.5282C15.9224 30.7266 17.7046 32.5088 19.903 32.5088Z" fill="#DE7300"/>
<path d="M18.9079 31.8454C20.5567 31.8454 21.8934 30.0632 21.8934 27.8647C21.8934 25.6662 20.5567 23.884 18.9079 23.884C17.259 23.884 15.9224 25.6662 15.9224 27.8647C15.9224 30.0632 17.259 31.8454 18.9079 31.8454Z" fill="#FF8400"/>
<path d="M32.5089 27.8647C35.0737 27.8647 37.153 25.7854 37.153 23.2206C37.153 20.6557 35.0737 18.5764 32.5089 18.5764C29.944 18.5764 27.8647 20.6557 27.8647 23.2206C27.8647 25.7854 29.944 27.8647 32.5089 27.8647Z" fill="#DE7300"/>
<path d="M31.5137 27.8647C33.529 27.8647 35.1626 25.7854 35.1626 23.2206C35.1626 20.6557 33.529 18.5764 31.5137 18.5764C29.4984 18.5764 27.8647 20.6557 27.8647 23.2206C27.8647 25.7854 29.4984 27.8647 31.5137 27.8647Z" fill="#FF8400"/>
<path d="M5.30762 27.2012L6.70483 29.995C6.81733 30.2194 7.04689 30.3612 7.29796 30.3612C7.54902 30.3612 7.77858 30.2194 7.89108 29.995L9.28829 27.2012H5.30762Z" fill="#FF8400"/>
<path d="M7.29793 27.8647C9.86281 27.8647 11.9421 25.7854 11.9421 23.2206C11.9421 20.6557 9.86281 18.5764 7.29793 18.5764C4.73305 18.5764 2.65381 20.6557 2.65381 23.2206C2.65381 25.7854 4.73305 27.8647 7.29793 27.8647Z" fill="#DE7300"/>
<path d="M6.30276 27.8647C8.31802 27.8647 9.95171 25.7854 9.95171 23.2206C9.95171 20.6557 8.31802 18.5764 6.30276 18.5764C4.2875 18.5764 2.65381 20.6557 2.65381 23.2206C2.65381 25.7854 4.2875 27.8647 6.30276 27.8647Z" fill="#FF8400"/>
<path d="M4.44522 8.48154C4.37224 8.57 4.30058 8.65846 4.23026 8.74692C4.13605 8.86634 4.04516 8.98576 3.95559 9.10518C3.88925 9.19276 3.8229 9.28099 3.75988 9.37056C3.65107 9.52182 3.54757 9.67309 3.44673 9.82369C3.35982 9.95638 3.27622 10.0818 3.19462 10.2105C3.12828 10.3193 3.05596 10.4281 2.99094 10.5356C2.92592 10.643 2.86223 10.7525 2.79987 10.86C2.74945 10.9485 2.69991 11.0358 2.65126 11.1221C2.58491 11.2362 2.5252 11.3503 2.46549 11.4631C2.42967 11.5294 2.39915 11.5958 2.36133 11.6621C2.13443 12.1033 1.93606 12.5299 1.76423 12.9379L1.73836 12.9976C1.67599 13.1469 1.61761 13.2922 1.56188 13.4348C1.25169 14.2242 0.999357 15.0351 0.806879 15.861C0.800244 15.8889 0.792946 15.9194 0.786975 15.946L0.77636 15.9971C0.758447 16.078 0.743188 16.1503 0.730582 16.2153L0.726602 16.2352C0.712669 16.3056 0.701391 16.3679 0.692766 16.415V16.4237C0.684141 16.4734 0.677507 16.5139 0.673526 16.5391L0.663574 16.5862L0.723284 16.5291L0.733236 16.5199C0.775033 16.4814 0.835407 16.4263 0.912366 16.3593L0.918337 16.354C1.54558 15.8185 2.24902 15.3794 3.00554 15.051C3.13823 14.5866 3.3147 14.0432 3.55023 13.4381C3.60596 13.2955 3.66434 13.1502 3.7267 13.0009L3.75258 12.9412C3.92441 12.5332 4.12278 12.1066 4.34968 11.6654C4.38418 11.5991 4.41602 11.5327 4.45384 11.4664C4.51355 11.3536 4.57591 11.2395 4.63961 11.1254C4.68782 11.0369 4.73735 10.9496 4.78822 10.8633C4.85058 10.7558 4.91295 10.6477 4.97929 10.5389C5.04563 10.4301 5.11198 10.3226 5.18297 10.2138C5.26457 10.0851 5.34817 9.95638 5.43508 9.82701C5.53592 9.67641 5.63942 9.52514 5.74822 9.37388C5.81457 9.2863 5.88091 9.19806 5.94394 9.1085C6.0335 8.98908 6.1244 8.86966 6.21861 8.75024C6.28893 8.66178 6.36058 8.57332 6.43356 8.48486C6.53706 8.35814 6.6452 8.23275 6.75467 8.10736C6.82102 8.02907 6.88736 7.95078 6.95901 7.87316C7.13372 7.67988 7.31528 7.48792 7.5037 7.29729C7.56142 7.23957 7.62379 7.18251 7.68283 7.12479C7.8268 6.98414 7.97342 6.84482 8.12535 6.70682C8.20762 6.63185 8.29254 6.55821 8.37746 6.48457C8.51811 6.36161 8.66252 6.2402 8.81069 6.12034C8.89826 6.04935 8.98518 5.9777 9.07607 5.90803C9.25984 5.76473 9.44959 5.62474 9.64331 5.48675C9.70103 5.44561 9.7561 5.40249 9.81515 5.36202C10.0613 5.19085 10.318 5.02499 10.5821 4.86244C10.677 4.80406 10.7771 4.74767 10.8747 4.68995C11.0578 4.58247 11.2442 4.47632 11.4353 4.37348C11.5494 4.31201 11.6648 4.25141 11.7816 4.1917C11.9773 4.09218 12.1797 3.99267 12.3833 3.90111C12.4941 3.84936 12.6023 3.79695 12.7151 3.74719C13.0203 3.6145 13.3341 3.48668 13.6565 3.36372C13.7613 3.32458 13.8721 3.28941 13.9783 3.25226C14.2138 3.16867 14.4513 3.08773 14.6961 3.01143C14.8454 2.96499 14.9973 2.92187 15.1499 2.87874C15.3671 2.81726 15.5882 2.75844 15.8134 2.70226C15.9759 2.66179 16.1378 2.62132 16.3043 2.58351C16.5558 2.52711 16.8145 2.47669 17.0752 2.4276C17.267 2.39177 17.4587 2.35595 17.6551 2.3241C17.9868 2.27102 18.3185 2.22326 18.6642 2.18279C18.8632 2.1589 19.0696 2.14165 19.2732 2.12241C19.5048 2.10052 19.7376 2.08062 19.9765 2.06469C20.2029 2.04965 20.4323 2.03705 20.6645 2.02688C20.7169 2.02688 20.7666 2.02091 20.8191 2.01892C20.5139 2.00498 20.2167 1.99039 19.9035 1.99039C19.5651 1.99039 19.2334 1.99702 18.9083 2.01029C18.8281 2.01029 18.7518 2.01958 18.6721 2.0229C18.4399 2.03307 18.2106 2.04567 17.9842 2.06071C17.746 2.07663 17.5124 2.09654 17.2809 2.11843C17.0772 2.13767 16.8709 2.15492 16.6719 2.17881C16.3275 2.21928 15.9925 2.26704 15.6628 2.32012C15.4637 2.35196 15.2746 2.38646 15.0829 2.42362C14.8222 2.47271 14.5634 2.52313 14.312 2.57953C14.1455 2.61734 13.9836 2.65781 13.821 2.69828C13.5968 2.75446 13.3756 2.81328 13.1576 2.87476C13.005 2.91855 12.8531 2.96167 12.7038 3.00745C12.459 3.08375 12.2215 3.16469 11.9859 3.24828C11.8798 3.28543 11.769 3.3206 11.6642 3.35974C11.3413 3.48093 11.0275 3.60875 10.7227 3.74321C10.61 3.79297 10.5018 3.84538 10.391 3.89713C10.1867 3.99134 9.98499 4.0882 9.78927 4.18772C9.67251 4.24743 9.55707 4.30802 9.44295 4.3695C9.25188 4.47234 9.06545 4.57849 8.88234 4.68597C8.78481 4.74369 8.68331 4.80008 8.58976 4.85846C8.32438 5.02101 8.06896 5.19019 7.82282 5.35804C7.76377 5.39851 7.70871 5.44163 7.65099 5.48277C7.45726 5.62076 7.26751 5.76075 7.08374 5.90405C6.99351 5.97372 6.9066 6.04537 6.81836 6.11636C6.67063 6.23622 6.52622 6.35763 6.38513 6.48059C6.30021 6.55423 6.21529 6.62787 6.13302 6.70284C5.98109 6.84084 5.83447 6.98016 5.6905 7.12081C5.63146 7.17853 5.56909 7.23559 5.51137 7.29331C5.32207 7.48394 5.14051 7.6759 4.96668 7.86918C4.89636 7.9468 4.83001 8.02509 4.76234 8.10338C4.65486 8.22678 4.54672 8.35482 4.44522 8.48154Z" fill="#66C1C6"/>
<path d="M6.27067 14.8241C6.34962 14.852 6.42857 14.8832 6.50818 14.917C6.54533 14.9336 6.58315 14.9488 6.62097 14.9668C6.73641 15.0205 6.85118 15.0789 6.96596 15.1465C7.12262 15.2376 7.27311 15.3389 7.41644 15.4497C7.45425 15.4783 7.49141 15.5081 7.52856 15.5386C7.67965 15.6587 7.82406 15.7869 7.96113 15.9228L8.01487 15.8717L8.02482 15.8624C8.06064 15.8292 8.11306 15.7828 8.17807 15.7297L8.1993 15.7111C8.26565 15.6528 8.3519 15.5851 8.4481 15.5121L8.47065 15.4949C8.57481 15.4152 8.69357 15.3297 8.82626 15.2408L8.84086 15.2308C8.87867 15.2063 8.92445 15.1804 8.96426 15.1545L8.9563 15.1465C8.84152 15.0802 8.72674 15.0205 8.6113 14.9668C8.57349 14.9488 8.53567 14.9336 8.49852 14.917C8.4189 14.8832 8.33995 14.8507 8.261 14.8241C8.21456 14.8082 8.16879 14.7923 8.12234 14.7777C8.04605 14.7545 7.97041 14.7339 7.89412 14.7153C7.85232 14.7054 7.81052 14.6941 7.76939 14.6855C7.1695 14.5677 6.55113 14.5824 5.95752 14.7286C6.01657 14.7438 6.07561 14.7591 6.13466 14.777C6.17845 14.7949 6.22422 14.8082 6.27067 14.8241Z" fill="white"/>
<path d="M1.22716 39.1433H3.2175C2.88017 39.1127 2.62941 38.8177 2.65357 38.4798V32.5088C2.65357 29.9413 4.419 27.8647 6.60107 27.8647H7.62941L7.58496 27.7758C5.90843 27.3558 4.6439 25.4763 4.6439 23.2206C4.6439 20.8448 6.04643 18.8889 7.85498 18.6129C7.48505 18.5643 7.11033 18.5643 6.74039 18.6129C6.59557 18.5897 6.44919 18.5775 6.30252 18.5764C4.28697 18.5764 2.65357 20.6557 2.65357 23.2206C2.65357 25.4763 3.91809 27.3558 5.59462 27.7758L5.63907 27.8647H4.61073C2.42866 27.8647 0.66323 29.9413 0.66323 32.5088V38.4798C0.639072 38.8177 0.889829 39.1127 1.22716 39.1433Z" fill="#FF8400"/>
<path d="M13.9324 39.8067H1.32689C0.59407 39.8067 0 39.2126 0 38.4798V32.5088C0.00329062 29.5788 2.37764 27.2045 5.30757 27.2012H9.28824C12.2182 27.2045 14.5925 29.5788 14.5958 32.5088V39.1432C14.5958 39.5096 14.2988 39.8067 13.9324 39.8067ZM5.30757 28.5281C3.11001 28.5303 1.32909 30.3112 1.32689 32.5088V38.4798H13.2689V32.5088C13.2667 30.3112 11.4858 28.5303 9.28824 28.5281H5.30757Z" fill="black"/>
<path d="M25.874 39.8068H13.932C13.5656 39.8068 13.2686 39.5098 13.2686 39.1434V36.4896C13.2718 33.5597 15.6462 31.1853 18.5761 31.182H21.2299C24.1598 31.1853 26.5342 33.5597 26.5375 36.4896V39.1434C26.5375 39.5098 26.2404 39.8068 25.874 39.8068ZM14.5954 38.4799H25.2106V36.4896C25.2084 34.292 23.4275 32.5111 21.2299 32.5089H18.5761C16.3786 32.5111 14.5976 34.292 14.5954 36.4896V38.4799Z" fill="black"/>
<path d="M38.4799 39.8067H25.8744C25.508 39.8067 25.2109 39.5096 25.2109 39.1432V32.5088C25.2142 29.5788 27.5886 27.2045 30.5185 27.2012H34.4992C37.4291 27.2045 39.8035 29.5788 39.8067 32.5088V38.4798C39.8067 39.2126 39.2127 39.8067 38.4799 39.8067ZM26.5378 38.4798H38.4799V32.5088C38.4777 30.3112 36.6967 28.5303 34.4992 28.5281H30.5185C28.3209 28.5303 26.54 30.3112 26.5378 32.5088V38.4798Z" fill="black"/>
<path d="M7.2978 28.5283C4.36651 28.5283 1.99023 26.152 1.99023 23.2207C1.99023 20.2894 4.36651 17.9131 7.2978 17.9131C10.2291 17.9131 12.6054 20.2894 12.6054 23.2207C12.6021 26.1506 10.2277 28.525 7.2978 28.5283ZM7.2978 19.24C5.09934 19.24 3.31713 21.0222 3.31713 23.2207C3.31713 25.4192 5.09934 27.2014 7.2978 27.2014C9.49627 27.2014 11.2785 25.4192 11.2785 23.2207C11.2763 21.0232 9.49536 19.2422 7.2978 19.24Z" fill="black"/>
<path d="M19.9034 32.5088C17.3385 32.5088 15.2593 30.4295 15.2593 27.8647C15.2593 25.2998 17.3385 23.2206 19.9034 23.2206C22.4683 23.2206 24.5475 25.2998 24.5475 27.8647C24.5446 30.4283 22.4671 32.5059 19.9034 32.5088ZM19.9034 24.5474C18.0713 24.5474 16.5862 26.0326 16.5862 27.8647C16.5862 29.6967 18.0713 31.1819 19.9034 31.1819C21.7355 31.1819 23.2206 29.6967 23.2206 27.8647C23.2184 26.0335 21.7345 24.5496 19.9034 24.5474Z" fill="black"/>
<path d="M32.5087 28.5283C29.5775 28.5283 27.2012 26.152 27.2012 23.2207C27.2012 20.2894 29.5775 17.9131 32.5087 17.9131C35.44 17.9131 37.8163 20.2894 37.8163 23.2207C37.813 26.1506 35.4387 28.525 32.5087 28.5283ZM32.5087 19.24C30.3103 19.24 28.5281 21.0222 28.5281 23.2207C28.5281 25.4192 30.3103 27.2014 32.5087 27.2014C34.7072 27.2014 36.4894 25.4192 36.4894 23.2207C36.4872 21.0232 34.7063 19.2422 32.5087 19.24Z" fill="black"/>
<path d="M19.9031 35.8261C19.6702 35.8261 19.4544 35.704 19.3345 35.5044L17.3442 32.1871C17.1635 31.8738 17.2671 31.4734 17.5772 31.2871C17.8873 31.1007 18.2894 31.1971 18.4813 31.5038L19.9031 33.873L21.3249 31.5038C21.4447 31.296 21.6673 31.169 21.9072 31.1718C22.1471 31.1746 22.3668 31.3066 22.4818 31.5171C22.5968 31.7276 22.5892 31.9838 22.462 32.1871L20.4717 35.5044C20.3517 35.704 20.1359 35.8261 19.9031 35.8261Z" fill="black"/>
<path d="M7.2981 31.8453C7.06524 31.8453 6.84945 31.7232 6.72953 31.5236L4.73919 28.2063C4.55849 27.893 4.66214 27.4926 4.97221 27.3063C5.28227 27.1199 5.68444 27.2163 5.87634 27.523L7.2981 29.8922L8.71987 27.523C8.8397 27.3152 9.06237 27.1882 9.30223 27.191C9.5421 27.1937 9.7618 27.3258 9.87682 27.5363C9.99184 27.7468 9.98427 28.003 9.85702 28.2063L7.86668 31.5236C7.74675 31.7232 7.53096 31.8453 7.2981 31.8453Z" fill="black"/>
<path d="M7.29821 39.8068C6.9318 39.8068 6.63477 39.5097 6.63477 39.1433V31.182C6.63477 30.8156 6.9318 30.5185 7.29821 30.5185C7.66462 30.5185 7.96166 30.8156 7.96166 31.182V39.1433C7.96166 39.5097 7.66462 39.8068 7.29821 39.8068Z" fill="black"/>
<path d="M32.5086 33.1722C31.6065 33.2099 30.7357 32.8372 30.1401 32.1585C28.8086 30.6233 29.1815 27.8866 29.1981 27.7705C29.2511 27.4091 29.5864 27.1586 29.948 27.2101C30.3096 27.2616 30.5616 27.5957 30.5117 27.9576C30.4241 28.5825 30.3677 30.3984 31.1439 31.2914C31.9038 32.0313 33.1148 32.0313 33.8747 31.2914C34.6542 30.3924 34.5945 28.5825 34.5056 27.9609C34.472 27.7262 34.566 27.4914 34.7524 27.345C34.9388 27.1985 35.1892 27.1626 35.4092 27.2507C35.6293 27.3389 35.7856 27.5378 35.8192 27.7725C35.8358 27.8886 36.2087 30.6253 34.8771 32.1605C34.2812 32.8385 33.4105 33.2104 32.5086 33.1722Z" fill="black"/>
<path d="M32.5092 34.4991C32.1427 34.4991 31.8457 34.2021 31.8457 33.8356V32.5088C31.8457 32.1423 32.1427 31.8453 32.5092 31.8453C32.8756 31.8453 33.1726 32.1423 33.1726 32.5088V33.8356C33.1726 34.2021 32.8756 34.4991 32.5092 34.4991Z" fill="black"/>
<path d="M0.00585938 16.4966C0.272998 15.017 0.729903 13.5781 1.36526 12.2154C1.50918 11.8715 1.67356 11.5365 1.85754 11.2123C2.03799 10.8865 2.20585 10.5541 2.39692 10.2344C2.78685 9.59896 3.2142 8.98729 3.67671 8.40259C5.58471 5.97056 8.10268 4.08712 10.9746 2.94376C13.8295 1.87288 16.8541 1.32519 19.9033 1.32694V2.65383C17.024 2.65271 14.1678 3.16773 11.4702 4.17445C8.81403 5.23112 6.48526 6.97271 4.72097 9.22195C4.2915 9.76421 3.89472 10.3316 3.53274 10.921C3.3556 11.2176 3.20101 11.5281 3.03184 11.8313C2.8596 12.1321 2.70649 12.4434 2.57339 12.7634C1.99306 14.0104 1.57222 15.3255 1.32081 16.6778L0.00585938 16.4966Z" fill="#66C1C6"/>
<path d="M1.5769 13.4015C1.41016 13.3386 1.22502 13.3459 1.06376 13.4218C0.902492 13.4977 0.778852 13.6357 0.721054 13.8043C0.402856 14.6786 0.163504 15.5796 0.00585938 16.4965L1.32081 16.6757C1.46748 15.8482 1.68569 15.0351 1.97298 14.2454C2.08884 13.9034 1.91402 13.531 1.5769 13.4015Z" fill="black"/>
<path d="M19.9036 2.65383V1.32694C16.8534 1.32529 13.8279 1.87344 10.9723 2.94509C8.10033 4.08845 5.58236 5.97189 3.67436 8.40392C3.53238 8.58371 3.38244 8.75886 3.24643 8.9433C3.0347 9.25148 3.1118 9.67282 3.41893 9.88606C3.71419 10.0884 4.11737 10.0146 4.32188 9.72086C4.44793 9.54969 4.58726 9.38914 4.71995 9.22195C6.48461 6.97253 8.81385 5.23091 11.4705 4.17445C14.1681 3.16773 17.0243 2.65271 19.9036 2.65383Z" fill="black"/>
<path d="M1.81582 11.2892C1.73052 11.4471 1.71051 11.6322 1.76009 11.8047L1.81648 11.9221C1.83907 11.9616 1.86697 11.9977 1.89941 12.0296C1.9253 12.0632 1.95591 12.093 1.9903 12.1178C2.02691 12.1423 2.06502 12.1645 2.10442 12.1842C2.26202 12.2563 2.4408 12.2672 2.60598 12.2147C2.68677 12.1849 2.76225 12.1424 2.82956 12.0887C3.03003 11.926 3.11366 11.6592 3.04187 11.4113C3.01361 11.329 2.97092 11.2524 2.91581 11.185C2.86215 11.1158 2.79572 11.0574 2.72009 11.0132C2.56634 10.9286 2.38557 10.9077 2.21654 10.9548C2.04631 11.0131 1.90361 11.1322 1.81582 11.2892Z" fill="black"/>
<path d="M0.663812 17.2496C0.395517 17.2496 0.153666 17.0879 0.0510015 16.8401C-0.0516627 16.5922 0.00507121 16.3069 0.194756 16.1171C1.65434 14.6576 5.06113 12.6752 7.96304 15.0311C9.60905 13.6929 12.7551 12.4244 15.7778 14.8984C16.357 14.1845 17.5585 13.269 19.9037 13.269C22.249 13.269 23.4505 14.1845 24.0297 14.8957C27.0517 12.4244 30.1998 13.6929 31.8444 15.0284C33.9754 13.2988 36.3778 13.9072 38.0808 14.9316C36.9623 11.1638 32.9842 2.65383 19.9037 2.65383C19.5373 2.65383 19.2403 2.35679 19.2403 1.99038C19.2403 1.62397 19.5373 1.32693 19.9037 1.32693C37.5282 1.32693 39.7799 16.3447 39.8011 16.4966C39.8407 16.7795 39.6947 17.0559 39.4388 17.1828C39.1829 17.3097 38.8745 17.2586 38.6733 17.0559C38.5293 16.9139 35.1172 13.5881 32.3128 16.3925C32.0538 16.6515 31.6338 16.6515 31.3747 16.3925C31.2314 16.2512 27.806 12.9386 24.3515 16.3925C24.1889 16.5551 23.9536 16.622 23.7298 16.5691C23.506 16.5163 23.3255 16.3513 23.2528 16.1331C23.2349 16.0793 22.6524 14.5959 19.9037 14.5959C17.1418 14.5959 16.558 16.1171 16.5527 16.1324C16.48 16.3506 16.2995 16.5156 16.0757 16.5684C15.8518 16.6213 15.6166 16.5545 15.454 16.3918C13.9944 14.9322 12.3829 14.4837 10.6593 15.0596C9.83219 15.3445 9.07331 15.7982 8.43077 16.3918C8.1717 16.6508 7.75174 16.6508 7.49266 16.3918C4.67567 13.5755 1.27617 16.9113 1.13287 17.0552C1.00848 17.1797 0.839754 17.2496 0.663812 17.2496Z" fill="black"/>
<path d="M7.96154 16.5862C7.94828 16.5862 7.93501 16.5862 7.92174 16.5862C7.74579 16.576 7.58115 16.4961 7.46415 16.3643C7.34715 16.2325 7.2874 16.0596 7.2981 15.8836C7.30473 15.7662 8.12475 4.0796 19.7503 1.34422C20.1072 1.26031 20.4645 1.4816 20.5484 1.83848C20.6323 2.19537 20.4111 2.5527 20.0542 2.63661C9.38198 5.14775 8.6303 15.8564 8.62499 15.9619C8.60424 16.313 8.3132 16.5868 7.96154 16.5862Z" fill="black"/>
<path d="M15.9227 16.5862C15.5563 16.5862 15.2593 16.2891 15.2593 15.9227C15.2593 15.5054 15.3064 5.64861 19.4343 1.52131C19.6009 1.34885 19.8476 1.27968 20.0795 1.34039C20.3115 1.40111 20.4927 1.58226 20.5534 1.81422C20.6141 2.04618 20.5449 2.29285 20.3725 2.45943C16.6293 6.20259 16.5862 15.8259 16.5862 15.9227C16.5862 16.2891 16.2891 16.5862 15.9227 16.5862Z" fill="black"/>
<path d="M31.8453 16.5862C31.4938 16.5869 31.2029 16.3134 31.1818 15.9626C31.1559 15.5247 30.3996 5.14178 19.7513 2.63661C19.3944 2.5527 19.1731 2.19537 19.257 1.83848C19.3409 1.4816 19.6983 1.26031 20.0552 1.34422C31.6807 4.0796 32.5007 15.7662 32.5087 15.8836C32.5194 16.0596 32.4597 16.2325 32.3426 16.3643C32.2256 16.4961 32.061 16.576 31.8851 16.5862H31.8453Z" fill="black"/>
<path d="M23.884 16.5862C23.5176 16.5862 23.2206 16.2892 23.2206 15.9228C23.2206 15.8259 23.1728 6.19798 19.4343 2.45946C19.1829 2.19914 19.1865 1.78535 19.4424 1.52943C19.6983 1.27352 20.1121 1.26992 20.3724 1.52135C24.5004 5.64865 24.5475 15.5055 24.5475 15.9228C24.5475 16.2892 24.2504 16.5862 23.884 16.5862Z" fill="black"/>
<path d="M19.9032 2.65378C19.5368 2.65378 19.2397 2.35675 19.2397 1.99034V0.663446C19.2397 0.297035 19.5368 0 19.9032 0C20.2696 0 20.5666 0.297035 20.5666 0.663446V1.99034C20.5666 2.35675 20.2696 2.65378 19.9032 2.65378Z" fill="black"/>
<path d="M19.9034 21.8938C18.8042 21.8938 17.9131 21.0027 17.9131 19.9034V14.0585C17.9131 13.6921 18.2101 13.395 18.5765 13.395C18.9429 13.395 19.24 13.6921 19.24 14.0585V19.9034C19.24 20.2698 19.537 20.5669 19.9034 20.5669C20.2698 20.5669 20.5669 20.2698 20.5669 19.9034V14.0585C20.5669 13.6921 20.8639 13.395 21.2303 13.395C21.5967 13.395 21.8938 13.6921 21.8938 14.0585V19.9034C21.8938 21.0027 21.0027 21.8938 19.9034 21.8938Z" fill="black"/>
</svg>
