<svg width="40" height="40" viewBox="0 0 40 40" fill="none" xmlns="http://www.w3.org/2000/svg">
<path d="M39.143 11.2936C39.143 13.1247 35.6665 14.6108 33.8354 14.6108H9.51346C9.36671 14.6114 9.2241 14.5623 9.10876 14.4715L0.921838 8.17541C0.75791 8.05116 0.662049 7.85698 0.663094 7.65129V5.00414C0.663924 4.95523 0.668359 4.90644 0.676363 4.85818C0.719563 4.66571 0.846176 4.50243 1.02184 4.41268C1.1975 4.32292 1.404 4.31599 1.58528 4.39377L9.82528 7.9233C9.90966 7.95739 9.99967 7.97539 10.0907 7.97638H33.8354C35.0087 8.04314 36.1518 8.37427 37.1792 8.94501C38.2738 9.54875 39.143 10.3781 39.143 11.2936Z" fill="#DE7300"/>
<path d="M37.1526 11.2937C37.1526 13.1248 33.6762 14.6109 31.8451 14.6109H9.51346C9.36671 14.6114 9.2241 14.5623 9.10876 14.4716L0.921838 8.17546C0.75791 8.05121 0.662049 7.85703 0.663094 7.65134V5.00419C0.663924 4.95527 0.668359 4.11824 0.676363 4.4641L7.83494 7.52922C7.91932 7.56331 8.00933 7.58131 8.10032 7.5823L31.8451 7.97642C33.0184 8.04319 34.1615 8.37432 35.1888 8.94506C36.2835 9.54879 37.1526 10.3781 37.1526 11.2937Z" fill="#FF8400"/>
<path d="M24.5075 7.97623H17.3688L15.7766 4.97082C15.6672 4.76547 15.6734 4.51784 15.7929 4.31823C15.9124 4.11861 16.1278 3.99617 16.3604 3.99555H20.9183C21.1158 3.99448 21.3033 4.08216 21.4291 4.23439L24.5075 7.97623Z" fill="#DE7300"/>
<path d="M22.5172 7.97623H17.3688L15.7766 4.97082C15.6672 4.76547 15.6734 4.51784 15.7929 4.31823C15.9124 4.11861 16.1278 3.99617 16.3604 3.99555H18.9279C19.1254 3.99448 19.313 4.08216 19.4388 4.23439L22.5172 7.97623Z" fill="#FF8400"/>
<path d="M9.49873 27.7058L6.46745 24.6745C5.81782 24.0243 5.29793 23.2563 4.93555 22.4115L3.4501 18.949C3.2212 18.4154 2.69651 18.0695 2.11591 18.0693C1.62259 18.0699 1.16333 18.321 0.896568 18.7359C0.629802 19.1509 0.592042 19.6729 0.796314 20.122L3.39636 25.8422C3.71498 26.5435 4.15726 27.1818 4.70202 27.7264L9.49873 32.5238H15.9229V30.6257C15.9442 29.205 15.483 27.8192 14.6146 26.6947C14.1288 26.0541 13.4673 25.5684 12.7105 25.2969C11.2379 24.675 9.88056 23.8098 8.6953 22.7373C7.7487 21.9471 6.35508 22.0116 5.48555 22.8859" fill="#66C1C6"/>
<path d="M30.3082 27.7058L33.3394 24.6745C33.9891 24.0243 34.509 23.2563 34.8713 22.4115L36.3568 18.949C36.5857 18.4154 37.1104 18.0695 37.691 18.0693C38.1843 18.0699 38.6436 18.321 38.9103 18.7359C39.1771 19.1509 39.2148 19.6729 39.0106 20.122L36.4105 25.8422C36.0919 26.5435 35.6496 27.1818 35.1049 27.7264L30.3082 32.5238H23.884V30.6257C23.8627 29.205 24.3239 27.8192 25.1923 26.6947C25.6781 26.0541 26.3396 25.5684 27.0964 25.2969C28.569 24.675 29.9263 23.8098 31.1116 22.7373C32.0582 21.9471 33.4518 22.0116 34.3213 22.8859" fill="#66C1C6"/>
<path d="M39.1434 19.5203C39.144 19.7289 39.0987 19.935 39.0107 20.124L36.41 25.843C36.0937 26.5459 35.6506 27.1846 35.103 27.7271L30.3063 32.5239H28.3159L33.1126 27.7271C33.6603 27.1846 34.1033 26.5459 34.4196 25.843L37.0203 20.124C37.1083 19.935 37.1536 19.7289 37.153 19.5203C37.1512 19.1209 36.9858 18.7396 36.6952 18.4654C36.9626 18.2085 37.3196 18.0657 37.6904 18.0674C38.4913 18.071 39.1397 18.7194 39.1434 19.5203Z" fill="#66C1C6"/>
<path d="M30.5185 32.5238H23.2206C22.8542 32.5238 22.5571 32.8209 22.5571 33.1873V38.4948C22.5571 38.8613 22.8542 39.1583 23.2206 39.1583H30.5185C30.8849 39.1583 31.1819 38.8613 31.1819 38.4948V33.1873C31.1819 32.8209 30.8849 32.5238 30.5185 32.5238Z" fill="#66C1C6"/>
<path d="M28.5281 32.5238H23.2206C22.8542 32.5238 22.5571 32.8209 22.5571 33.1873V38.4948C22.5571 38.8613 22.8542 39.1583 23.2206 39.1583H28.5281C28.8945 39.1583 29.1916 38.8613 29.1916 38.4948V33.1873C29.1916 32.8209 28.8945 32.5238 28.5281 32.5238Z" fill="#66C1C6"/>
<path d="M16.5864 32.5238H9.28845C8.92203 32.5238 8.625 32.8209 8.625 33.1873V38.4948C8.625 38.8613 8.92203 39.1583 9.28845 39.1583H16.5864C16.9528 39.1583 17.2498 38.8613 17.2498 38.4948V33.1873C17.2498 32.8209 16.9528 32.5238 16.5864 32.5238Z" fill="#66C1C6"/>
<path d="M27.8648 18.5915C27.8594 19.322 27.2685 19.9129 26.5379 19.9184H22.6368L20.1025 22.9967C19.9767 23.149 19.7891 23.2366 19.5916 23.2356H15.0337C14.8011 23.235 14.5858 23.1125 14.4663 22.9129C14.3468 22.7133 14.3406 22.4657 14.4499 22.2603L19.9034 11.957H29.1917L24.8196 17.2646H26.5379C27.2698 17.2668 27.8626 17.8595 27.8648 18.5915Z" fill="#DE7300"/>
<path d="M25.8745 18.5915C25.869 19.322 25.2781 19.9129 24.5476 19.9184H20.6465L18.1121 22.9967C17.9863 23.149 17.7988 23.2366 17.6013 23.2356H15.0337C14.8011 23.235 14.5858 23.1125 14.4663 22.9129C14.3468 22.7133 14.3406 22.4657 14.4499 22.2603L19.9034 11.957H27.2013L22.8292 17.2646H24.5476C24.6804 17.2634 24.8126 17.2836 24.939 17.3243C25.4949 17.4959 25.8742 18.0097 25.8745 18.5915Z" fill="#FF8400"/>
<path d="M2.11723 18.0693C1.62368 18.0694 1.16401 18.3203 0.896927 18.7354C0.629844 19.1504 0.591944 19.6727 0.796314 20.122L3.39636 25.8422C3.71498 26.5435 4.15725 27.1818 4.70202 27.7264L9.49873 32.5238H9.28842C8.92201 32.5238 8.62497 32.8208 8.62497 33.1872V38.4948C8.62497 38.8612 8.92201 39.1582 9.28842 39.1582H11.2788C10.9123 39.1582 10.6153 38.8612 10.6153 38.4948V33.1872C10.6153 32.8208 10.9123 32.5238 11.2788 32.5238H11.4891L6.69169 27.7264C6.14693 27.1818 5.70466 26.5435 5.38603 25.8422L2.78665 20.122C2.53062 19.5615 2.65763 18.9004 3.10311 18.4746C2.83846 18.2184 2.48562 18.0733 2.11723 18.0693Z" fill="#66C1C6"/>
<path d="M9.10876 14.4715C9.22409 14.5623 9.36671 14.6114 9.51346 14.6108L11.5038 14.6108C11.357 14.6114 11.2144 14.5623 11.0991 14.4715L2.91218 8.17541C2.74825 8.05116 2.65239 7.85698 2.65343 7.65129V5.00414C2.65426 4.95523 2.6587 4.90644 2.6667 4.85818L1.58528 4.39377C1.404 4.31599 1.1975 4.32292 1.02184 4.41268C0.846175 4.50243 0.719563 4.66571 0.676363 4.85818C0.668359 4.90644 0.663924 4.95523 0.663094 5.00414V7.65129C0.662049 7.85698 0.75791 8.05116 0.921838 8.17541L9.10876 14.4715Z" fill="#FF8400"/>
<path d="M15.9229 33.1873H9.49871C9.32276 33.1873 9.15404 33.1174 9.02965 32.9929L4.23227 28.1956C3.63068 27.595 3.1427 26.8906 2.79193 26.1163L0.191887 20.3967C-0.113284 19.7055 -0.0264766 18.9039 0.41961 18.2939C0.865697 17.684 1.60329 17.3584 2.35455 17.4398C3.10581 17.5211 3.7566 17.9971 4.06177 18.6884L5.4968 22.0414C6.6161 21.3013 8.08754 21.3791 9.12253 22.2332C10.2384 23.2589 11.5234 24.0836 12.9208 24.6707C13.7994 24.9811 14.568 25.5417 15.132 26.2835C16.0933 27.5251 16.6059 29.0556 16.5863 30.6258V32.5239C16.5863 32.8903 16.2893 33.1873 15.9229 33.1873ZM9.77337 31.8604H15.2594V30.6258C15.2794 29.356 14.8696 28.1169 14.0964 27.1095C13.6905 26.5688 13.1361 26.1578 12.5008 25.9266C10.9416 25.2921 9.50822 24.3844 8.26801 23.2462C7.64758 22.735 6.75624 22.7201 6.11911 23.2104C6.35839 23.5682 6.6324 23.9016 6.93714 24.2056L9.96776 27.2369C10.1402 27.4034 10.2094 27.6501 10.1487 27.8821C10.088 28.114 9.90682 28.2952 9.67486 28.3559C9.4429 28.4166 9.19622 28.3475 9.02965 28.175L5.99903 25.1437C5.28798 24.4348 4.71992 23.5958 4.32582 22.6724L2.84169 19.2112C2.71797 18.9209 2.43277 18.7326 2.11721 18.7328C1.84906 18.7329 1.59932 18.8692 1.45418 19.0947C1.30905 19.3202 1.2884 19.604 1.39936 19.8481L3.9994 25.5676C4.28482 26.1968 4.68151 26.7693 5.17039 27.2574L9.77337 31.8604Z" fill="black"/>
<path d="M16.5862 39.8217H9.28832C8.5555 39.8217 7.96143 39.2277 7.96143 38.4948V33.1873C7.96143 32.4545 8.5555 31.8604 9.28832 31.8604H16.5862C17.319 31.8604 17.9131 32.4545 17.9131 33.1873V38.4948C17.9131 39.2277 17.319 39.8217 16.5862 39.8217ZM9.28832 33.1873V38.4948H16.5862V33.1873H9.28832Z" fill="#070707"/>
<path d="M14.5959 36.5044H13.9325C13.5661 36.5044 13.269 36.2074 13.269 35.841C13.269 35.4746 13.5661 35.1776 13.9325 35.1776H14.5959C14.9623 35.1776 15.2594 35.4746 15.2594 35.841C15.2594 36.2074 14.9623 36.5044 14.5959 36.5044Z" fill="black"/>
<path d="M30.3079 33.1873H23.8838C23.5173 33.1873 23.2203 32.8902 23.2203 32.5238V30.6257C23.2 29.0544 23.7126 27.5226 24.6746 26.2801C25.2386 25.5383 26.0072 24.9777 26.8858 24.6673C28.2832 24.0802 29.5682 23.2555 30.6841 22.2298C31.7191 21.3738 33.1914 21.2931 34.3138 22.0307L35.7455 18.6903C36.0427 17.9867 36.6961 17.4981 37.455 17.4118C38.2139 17.3256 38.9603 17.6551 39.4078 18.274C39.8553 18.8929 39.9344 19.705 39.6147 20.3987L37.0147 26.1182C36.6639 26.8925 36.1759 27.5969 35.5743 28.1975L30.777 32.9929C30.6526 33.1173 30.4838 33.1872 30.3079 33.1873ZM24.5472 31.8604H30.0332L34.6362 27.2574C35.1251 26.7692 35.5218 26.1967 35.8072 25.5676L38.4072 19.848C38.5182 19.6039 38.4976 19.3201 38.3524 19.0946C38.2073 18.8692 37.9575 18.7329 37.6894 18.7328C37.374 18.7326 37.089 18.9205 36.9649 19.2104L35.4808 22.6723C35.0867 23.5958 34.5186 24.4348 33.8076 25.1436L30.777 28.1749C30.5166 28.4264 30.1028 28.4228 29.8469 28.1668C29.591 27.9109 29.5874 27.4971 29.8388 27.2368L32.8695 24.2055C33.1761 23.8998 33.4515 23.5642 33.6915 23.2037C33.0522 22.713 32.1583 22.7304 31.5386 23.2455C30.2983 24.3839 28.8646 25.2916 27.3051 25.9258C26.6711 26.1577 26.1179 26.5686 25.7129 27.1088C24.9386 28.116 24.5278 29.3554 24.5472 30.6257V31.8604Z" fill="black"/>
<path d="M30.5183 39.8217H23.2204C22.4876 39.8217 21.8936 39.2277 21.8936 38.4948V33.1873C21.8936 32.4545 22.4876 31.8604 23.2204 31.8604H30.5183C31.2512 31.8604 31.8452 32.4545 31.8452 33.1873V38.4948C31.8452 39.2277 31.2512 39.8217 30.5183 39.8217ZM23.2204 33.1873V38.4948H30.5183V33.1873H23.2204Z" fill="black"/>
<path d="M25.8743 36.5044H25.2108C24.8444 36.5044 24.5474 36.2074 24.5474 35.841C24.5474 35.4746 24.8444 35.1776 25.2108 35.1776H25.8743C26.2407 35.1776 26.5377 35.4746 26.5377 35.841C26.5377 36.2074 26.2407 36.5044 25.8743 36.5044Z" fill="black"/>
<path d="M8.7045 14.9975L1.86769 9.73972L0.517578 8.70143L1.32698 7.6492L2.67709 8.68749L9.51391 13.9453L8.7045 14.9975Z" fill="#FF8400"/>
<path d="M6.47962 12.4493C6.25728 12.7395 6.31157 13.1549 6.60103 13.3782L8.70415 14.9963L9.51356 13.9474L7.40977 12.3299C7.11989 12.1062 6.7036 12.1597 6.47962 12.4493Z" fill="black"/>
<path d="M1.32698 7.6492L0.517578 8.70143L2.3938 10.1438C2.5812 10.2943 2.83538 10.3318 3.05822 10.2416C3.28107 10.1514 3.4377 9.94776 3.46765 9.70924C3.4976 9.47072 3.39618 9.23466 3.20254 9.09219L1.32698 7.6492Z" fill="black"/>
<path d="M4.49775 11.7621C4.63885 11.866 4.81377 11.9133 4.98803 11.8948L5.1121 11.8642C5.15464 11.8504 5.19506 11.8308 5.23218 11.8058C5.27042 11.7877 5.30575 11.764 5.33701 11.7355C5.36941 11.7053 5.39978 11.6729 5.4279 11.6387C5.53236 11.4976 5.57974 11.3222 5.56059 11.1477C5.5469 11.0615 5.51696 10.9786 5.47235 10.9036C5.33724 10.6729 5.07931 10.543 4.81355 10.5718C4.72751 10.5859 4.6449 10.616 4.57006 10.6607C4.49602 10.704 4.43112 10.7612 4.37899 10.8293C4.27063 10.968 4.22247 11.1445 4.24529 11.3191C4.26812 11.4937 4.36001 11.6518 4.5004 11.7581L4.49775 11.7621Z" fill="black"/>
<path d="M18.4969 15.2742H9.51385C9.21963 15.2748 8.93371 15.1767 8.7018 14.9956C8.41233 14.7706 8.36005 14.3536 8.58503 14.0641C8.81001 13.7746 9.22704 13.7224 9.51651 13.9473H18.4969C18.8633 13.9473 19.1604 14.2444 19.1604 14.6108C19.1604 14.9772 18.8633 15.2742 18.4969 15.2742Z" fill="black"/>
<path d="M33.8358 15.2742H27.0089C26.6425 15.2742 26.3455 14.9772 26.3455 14.6108C26.3455 14.2444 26.6425 13.9473 27.0089 13.9473H33.8358C35.4599 13.9473 38.4799 12.5833 38.4799 11.2936C38.4799 10.7462 37.8742 10.0854 36.8591 9.52548C35.9298 9.00899 34.8969 8.7064 33.8358 8.63978H10.091C9.91813 8.63916 9.74687 8.60607 9.58616 8.54225L1.32692 5.00409V7.65124C1.51536 7.79524 1.61266 8.02882 1.58218 8.26401C1.55169 8.4992 1.39805 8.70025 1.17913 8.79145C0.960214 8.88264 0.709273 8.85012 0.520837 8.70612C0.190269 8.45657 -0.00284689 8.06542 3.17325e-05 7.65124V5.00409C-0.00202901 4.55677 0.222223 4.13873 0.596045 3.89304C0.969867 3.64735 1.44256 3.60733 1.85237 3.78667L10.0844 7.31289H33.8358C35.1197 7.37961 36.3716 7.73835 37.496 8.36179C38.9874 9.18447 39.8068 10.2247 39.8068 11.2936C39.8068 13.6329 35.9329 15.2742 33.8358 15.2742Z" fill="black"/>
<path d="M19.5913 23.899H15.0334C14.5675 23.8981 14.1362 23.653 13.8971 23.2531C13.658 22.8533 13.6461 22.3573 13.8657 21.9465L19.3173 11.6465C19.4888 11.3226 19.8903 11.199 20.2142 11.3705C20.5382 11.5419 20.6617 11.9435 20.4902 12.2674L15.0361 22.5721H19.5913L22.1243 19.4963C22.3573 19.2135 22.7756 19.1731 23.0584 19.4061C23.3413 19.6392 23.3817 20.0574 23.1487 20.3403L20.6143 23.4186C20.3619 23.7232 19.9868 23.8994 19.5913 23.899Z" fill="black"/>
<path d="M24.8199 17.928C24.5631 17.9281 24.3293 17.7799 24.2197 17.5477C24.1101 17.3154 24.1444 17.0408 24.3077 16.8426L28.6798 11.535C28.8306 11.352 29.0675 11.2634 29.3013 11.3024C29.5352 11.3415 29.7304 11.5024 29.8135 11.7244C29.8966 11.9464 29.8549 12.196 29.7042 12.3789L25.3321 17.6865C25.206 17.8395 25.0181 17.9281 24.8199 17.928Z" fill="black"/>
<path d="M17.37 8.63981C17.124 8.64013 16.898 8.50427 16.7828 8.28686L15.1932 5.28079C14.9754 4.87002 14.9884 4.37521 15.2276 3.97651C15.4668 3.57781 15.8973 3.33339 16.3622 3.33224H20.9174C21.3136 3.33232 21.6891 3.50947 21.9411 3.81523L25.0202 7.55442C25.1709 7.7374 25.2126 7.98691 25.1295 8.20895C25.0464 8.431 24.8512 8.59184 24.6173 8.6309C24.3835 8.66996 24.1466 8.5813 23.9958 8.39832L20.9174 4.65914H16.3622L17.9545 7.66587C18.0632 7.87123 18.0566 8.11852 17.937 8.31777C17.8175 8.51702 17.6023 8.63918 17.37 8.63981Z" fill="black"/>
<path d="M26.5381 20.5818H22.6371C22.2707 20.5818 21.9736 20.2847 21.9736 19.9183C21.9736 19.5519 22.2707 19.2549 22.6371 19.2549H26.5381C26.7112 19.2566 26.8776 19.1876 26.9986 19.0638C27.1287 18.9412 27.2022 18.7702 27.2016 18.5914C27.2016 18.225 26.9046 17.928 26.5381 17.928H24.8198C24.4534 17.928 24.1564 17.631 24.1564 17.2646C24.1564 16.8981 24.4534 16.6011 24.8198 16.6011H26.5381C27.6374 16.6011 28.5285 17.4922 28.5285 18.5914C28.523 19.6884 27.6351 20.5763 26.5381 20.5818Z" fill="black"/>
<path d="M11.9418 12.6206C11.5754 12.6206 11.2783 12.3235 11.2783 11.9571V10.6302C11.2783 10.2638 11.5754 9.96677 11.9418 9.96677C12.3082 9.96677 12.6052 10.2638 12.6052 10.6302V11.9571C12.6052 12.3235 12.3082 12.6206 11.9418 12.6206Z" fill="black"/>
<path d="M14.5956 12.6206C14.2292 12.6206 13.9321 12.3235 13.9321 11.9571V10.6302C13.9321 10.2638 14.2292 9.96677 14.5956 9.96677C14.962 9.96677 15.259 10.2638 15.259 10.6302V11.9571C15.259 12.3235 14.962 12.6206 14.5956 12.6206Z" fill="black"/>
<path d="M17.2499 12.6206C16.8835 12.6206 16.5864 12.3235 16.5864 11.9571V10.6302C16.5864 10.2638 16.8835 9.96677 17.2499 9.96677C17.6163 9.96677 17.9133 10.2638 17.9133 10.6302V11.9571C17.9133 12.3235 17.6163 12.6206 17.2499 12.6206Z" fill="black"/>
<path d="M31.8451 12.6206C31.4787 12.6206 31.1816 12.3235 31.1816 11.9571V10.6302C31.1816 10.2638 31.4787 9.96677 31.8451 9.96677C32.2115 9.96677 32.5085 10.2638 32.5085 10.6302V11.9571C32.5085 12.3235 32.2115 12.6206 31.8451 12.6206Z" fill="black"/>
<path d="M35.826 5.98599C35.4596 5.98599 35.1625 5.68895 35.1625 5.32254C35.1625 4.22331 34.2714 3.3322 33.1722 3.3322C32.073 3.3322 31.1819 4.22331 31.1819 5.32254C31.1819 5.68895 30.8848 5.98599 30.5184 5.98599C30.152 5.98599 29.855 5.68895 29.855 5.32254C29.855 3.49048 31.3402 2.00531 33.1722 2.00531C35.0043 2.00531 36.4894 3.49048 36.4894 5.32254C36.4894 5.4985 36.4195 5.66725 36.2951 5.79167C36.1707 5.91609 36.002 5.98599 35.826 5.98599Z" fill="black"/>
<path d="M25.2108 4.65911C24.8444 4.65911 24.5474 4.36208 24.5474 3.99567C24.54 2.00128 26.0097 0.309276 27.9855 0.0374641C29.9613 -0.234348 31.8333 0.997935 32.3648 2.92022C32.4289 3.14848 32.3664 3.3936 32.2007 3.56326C32.0351 3.73291 31.7916 3.80132 31.5618 3.74272C31.3321 3.68412 31.1511 3.5074 31.087 3.27915C30.7343 1.99562 29.4853 1.17193 28.1666 1.3532C26.848 1.53446 25.8676 2.66459 25.8743 3.99567C25.8743 4.17163 25.8044 4.34037 25.68 4.4648C25.5555 4.58922 25.3868 4.65911 25.2108 4.65911Z" fill="black"/>
<path d="M39.1433 5.32257C38.7769 5.32257 38.4799 5.02554 38.4799 4.65913C38.4738 4.04305 38.0445 3.51216 37.4433 3.37737C36.8422 3.24258 36.2273 3.53934 35.9588 4.09387C35.7994 4.41561 35.413 4.55218 35.0868 4.40203C34.7607 4.25189 34.6132 3.86953 34.754 3.53923C35.279 2.41269 36.5164 1.80232 37.7298 2.07127C38.9433 2.34021 39.8069 3.41623 39.8068 4.65913C39.8068 5.02554 39.5097 5.32257 39.1433 5.32257Z" fill="black"/>
<path d="M4.92781 3.31429C4.70317 3.31419 4.49384 3.20043 4.37155 3.01198C4.24927 2.82354 4.23066 2.58601 4.32209 2.38082C4.93424 1.00278 6.27183 0.0883426 7.77808 0.0181343C9.28433 -0.0520741 10.7012 0.733979 11.4389 2.0491C11.5607 2.25606 11.5611 2.51269 11.44 2.72007C11.319 2.92746 11.0953 3.05323 10.8552 3.04891C10.6151 3.0446 10.396 2.91087 10.2825 2.69927C9.79122 1.82108 8.84613 1.29563 7.84093 1.34184C6.83573 1.38805 5.94282 1.99799 5.5342 2.91755C5.42852 3.15825 5.19069 3.31386 4.92781 3.31429Z" fill="black"/>
<path d="M10.6151 3.99569C10.2487 3.99569 9.95166 3.69866 9.95166 3.33225C9.95167 2.22506 10.6391 1.23423 11.6762 0.846521C12.7132 0.458814 13.8821 0.755715 14.6084 1.59137C14.7695 1.76944 14.8219 2.02071 14.7452 2.24831C14.6685 2.4759 14.4748 2.6443 14.2388 2.68859C14.0028 2.73288 13.7612 2.64614 13.6072 2.46181C13.2441 2.04372 12.6596 1.89509 12.1409 2.08898C11.6222 2.28287 11.2784 2.77849 11.2786 3.33225C11.2786 3.69866 10.9815 3.99569 10.6151 3.99569Z" fill="black"/>
<path d="M22.557 12.6206C22.1906 12.6206 21.8936 12.3235 21.8936 11.9571V10.6302C21.8936 10.2638 22.1906 9.96677 22.557 9.96677C22.9234 9.96677 23.2204 10.2638 23.2204 10.6302V11.9571C23.2204 12.3235 22.9234 12.6206 22.557 12.6206Z" fill="black"/>
<path d="M25.2108 12.6206C24.8444 12.6206 24.5474 12.3235 24.5474 11.9571V10.6302C24.5474 10.2638 24.8444 9.96677 25.2108 9.96677C25.5772 9.96677 25.8743 10.2638 25.8743 10.6302V11.9571C25.8743 12.3235 25.5772 12.6206 25.2108 12.6206Z" fill="black"/>
</svg>
